<?xml version="1.0" encoding="utf-8"?>
<!-- Generator: Adobe Illustrator 16.0.3, SVG Export Plug-In . SVG Version: 6.00 Build 0)  -->
<!DOCTYPE svg PUBLIC "-//W3C//DTD SVG 1.1//EN" "http://www.w3.org/Graphics/SVG/1.1/DTD/svg11.dtd">
<svg version="1.1" id="Layer_1" xmlns="http://www.w3.org/2000/svg" xmlns:xlink="http://www.w3.org/1999/xlink" x="0px" y="0px"
	 width="612px" height="792px" viewBox="0 0 612 792" enable-background="new 0 0 612 792" xml:space="preserve">
<path fill="none" stroke="#FFFFFF" stroke-width="1.5" stroke-miterlimit="10" d="M178.168,399.674l4.807,55.952
	c0,0,41.525-27.289,94.472-18.679l-7.427-53.504C270.018,383.444,220.654,369.04,178.168,399.674z"/>
<path fill="none" stroke="#FFFFFF" stroke-width="1.5" stroke-miterlimit="10" d="M179.189,411.574c0,0,40.821-27.472,92.47-16.304"
	/>
<path fill="none" stroke="#FFFFFF" stroke-width="1.5" stroke-miterlimit="10" d="M180.843,425.971c0,0,34.38-25.848,90.341-17.132"
	/>
<path fill="none" stroke="#FFFFFF" stroke-width="1.5" stroke-miterlimit="10" d="M181.547,440.574c0,0,29.055-25.046,93.507-19.454
	"/>
<path fill="none" stroke="#FFFFFF" stroke-width="1.5" stroke-miterlimit="10" d="M434.962,415.009l-4.806-55.949
	c0,0-41.525,27.284-94.473,18.677l7.428,53.506C343.113,431.241,392.48,445.645,434.962,415.009z"/>
<path fill="none" stroke="#FFFFFF" stroke-width="1.5" stroke-miterlimit="10" d="M433.941,403.11c0,0-40.818,27.469-92.467,16.304"
	/>
<path fill="none" stroke="#FFFFFF" stroke-width="1.5" stroke-miterlimit="10" d="M432.287,388.713c0,0-34.381,25.846-90.338,17.13"
	/>
<path fill="none" stroke="#FFFFFF" stroke-width="1.5" stroke-miterlimit="10" d="M431.582,374.107c0,0-29.053,25.047-93.506,19.452
	"/>
<g>
	<path fill="#FFFFFF" d="M207.751,464.444c-5.292-0.37-14.001-3.754-12.873-22.26c0.61-10.025,3.8-25.145,9.752-46.214
		c4.81-17.091,10.458-32.838,16.779-46.8c3.292-7.3,4.406-9.29,5.121-10.348c2.487-3.619,5.906-5.811,9.933-6.394
		c0.91-0.131,1.813-0.167,2.681-0.105c2.561,0.179,4.931,1.227,6.717,2.955c2.29,2.128,3.481,5.154,3.286,8.37
		c-0.136,2.229-0.731,4.53-1.813,7.034l-3.331,7.561c-5.559,12.683-10.417,25.481-14.458,38.088
		c5.839-9.73,11.537-18.862,17.067-27.354c6.234-9.574,13.433-19.907,21.396-30.716c4.598-6.288,8.675-9.397,13.202-10.056
		c0.772-0.11,1.545-0.141,2.301-0.088c2.75,0.192,5.277,1.471,7.115,3.59l0.215,0.266c1.604,2.016,2.402,4.536,2.247,7.094
		c-0.196,3.23-1.853,6.586-5.902,11.96c-17.705,23.746-38.459,57.051-61.663,98.953c-3.08,5.553-4.566,7.661-5.421,8.747
		c-2.999,3.954-6.63,5.222-9.157,5.588C209.861,464.473,208.784,464.517,207.751,464.444z"/>
	<path fill="#FFFFFF" d="M340.535,384.975c0.436-7.136-4.409-11.227-9.416-11.577c-0.832-0.059-1.698-0.022-2.576,0.106
		c-2.718,0.393-5.897,1.766-10.799,5.755c-1.686-1.384-3.674-2.187-5.795-2.335c-0.716-0.05-1.439-0.023-2.152,0.08
		c-4.997,0.726-8.387,4.975-10.811,8.646c-0.375,0.574-0.777,1.22-1.194,1.896c0.003-3.653-1.466-7.015-4.328-9.612
		c-2.256-1.972-5.07-3.125-8.142-3.34c-1.136-0.079-2.32-0.032-3.522,0.145c-4.91,0.711-9.916,3.231-14.896,7.505
		c-6.552,5.65-12.343,13.216-17.217,22.49c-4.541,8.659-6.958,16.297-7.386,23.352c-0.235,3.869,0.439,7.318,2.045,10.325
		c2.418,4.41,6.363,7.02,11.112,7.352c1.059,0.074,2.157,0.031,3.27-0.131c3.531-0.511,6.875-2.19,10.125-5.095
		c2.693,2.791,6.054,4.396,9.801,4.658c12.206,0.854,16.888-5.827,20.337-10.049c1.008,1.556,2.153,2.954,2.776,3.365
		c7.4,4.881,15.048,0.74,17.315-1.175c3.704-3.125,3.918-7.619,3.214-10.331c-0.299-1.154,0.808-1.155,0.892-2.489
		c0.304-4.96,1.097-14.421,12.64-29.044C338.832,391.65,340.328,388.313,340.535,384.975z"/>
	<path fill="#FFFFFF" d="M334.979,435.064c-4.859-0.341-8.893-2.556-11.665-6.408c-2.418-3.474-3.468-7.537-3.181-12.176
		c0.418-6.868,3.309-14.611,8.837-23.666c5.033-8.185,10.801-15.119,17.146-20.632c4.662-3.983,8.846-6.182,12.852-6.759
		c1.217-0.178,2.4-0.227,3.512-0.149c6.038,0.423,11.883,5.018,11.314,14.331c-0.201,3.281-1.099,6.624-2.678,9.986
		c0.711,0.458,1.371,1.016,1.961,1.658l0.193,0.207l0.174,0.224c1.616,2.028,2.416,4.53,2.26,7.042
		c-0.207,3.39-1.899,7.425-9.686,16.996c-9.597,11.691-18.316,17.949-26.666,19.163C337.842,435.1,336.371,435.161,334.979,435.064z
		"/>
	<path fill="#FFFFFF" d="M377.932,426.943c-4.66-0.326-8.658-2.348-11.552-5.844c-2.722-3.388-3.897-7.751-3.571-13.067
		c0.65-10.682,5.908-21.687,15.637-32.706c8.428-9.582,15.604-14.52,22.576-15.529c0.979-0.144,1.963-0.181,2.917-0.112
		c2.28,0.158,4.394,0.892,6.285,2.182l0.235,0.162c3.451,2.534,5.27,6.572,4.993,11.079c-0.148,2.401-0.808,4.998-2.007,7.848
		c2.532,0.267,4.834,1.534,6.51,3.591l0.238,0.303c1.414,1.914,2.09,4.135,1.953,6.416c-0.262,4.289-3.071,8.902-10.027,16.46
		c-4.402,4.809-9.14,8.965-14.066,12.334c-5.516,3.782-10.616,5.97-15.593,6.696C380.899,426.979,379.375,427.043,377.932,426.943z"
		/>
</g>
<path d="M208.251,457.307c-4.708-0.33-6.806-5.27-6.229-14.686c0.57-9.377,3.766-24.417,9.496-44.705
	c4.715-16.752,10.237-32.158,16.412-45.794c2.354-5.225,3.841-8.268,4.537-9.301c1.308-1.904,2.998-3.014,5.026-3.31
	c0.404-0.061,0.793-0.077,1.153-0.052c0.943,0.066,1.725,0.419,2.323,1.045c0.726,0.615,1.106,1.574,1.039,2.705
	c-0.083,1.368-0.501,2.926-1.24,4.63l-3.309,7.517c-6.178,14.092-11.502,28.32-15.823,42.281
	c-5.611,18.008-8.776,32.406-9.408,42.793l-0.014,0.528c14.142-25.728,27.725-48.617,40.395-68.077
	c6.162-9.461,13.281-19.681,21.162-30.377c3.296-4.506,6.065-6.866,8.469-7.218c0.267-0.036,0.525-0.047,0.775-0.03
	c0.862,0.061,1.604,0.441,2.202,1.134c0.545,0.686,0.785,1.429,0.733,2.245c-0.062,1.005-0.592,2.931-4.474,8.09
	c-17.918,24.029-38.85,57.606-62.208,99.792c-2.18,3.929-3.763,6.498-4.836,7.85c-1.224,1.642-2.748,2.614-4.507,2.867
	C209.336,457.318,208.774,457.342,208.251,457.307z"/>
<path d="M335.479,427.928c-2.705-0.189-4.844-1.351-6.354-3.451c-1.414-2.029-2.033-4.566-1.85-7.555
	c0.34-5.602,2.964-12.455,7.801-20.375c4.643-7.547,9.934-13.925,15.734-18.963c3.555-3.037,6.559-4.7,9.184-5.076
	c0.713-0.106,1.384-0.138,1.987-0.096c2.308,0.162,4.993,1.468,4.673,6.76c-0.246,4.006-1.996,8.277-5.201,12.714
	c-2.584,3.517-4.781,5.36-6.727,5.643c-0.281,0.04-0.545,0.05-0.795,0.032c-0.729-0.051-2.418-0.467-2.247-3.24
	c0.063-1.076,0.372-1.995,0.921-2.726c0.07-0.098,0.286-0.398,2.008-2.169c0.895-0.955,1.869-2.381,2.896-4.227
	c0.819-1.465,1.021-2.254,1.044-2.66c0.01-0.141-0.011-0.195-0.01-0.197c0.016,0.109-0.07,0.105-0.199,0.128
	c-0.484,0.069-1.719,0.562-4.504,3.072c-3.51,3.198-7.184,8.032-10.91,14.355c-3.813,6.547-5.854,11.599-6.059,15.009
	c-0.061,0.936,0.141,1.688,0.604,2.305c0.531,0.74,1.156,1.102,1.994,1.16c0.262,0.019,0.551,0.009,0.853-0.036
	c2.953-0.428,6.691-2.955,11.115-7.509c3.839-3.996,7.155-7.97,9.854-11.799c1.611-2.403,2.959-3.615,4.221-3.8
	c0.188-0.026,0.373-0.035,0.555-0.023c0.648,0.047,1.252,0.353,1.744,0.886c0.561,0.706,0.802,1.423,0.756,2.188
	c-0.086,1.382-1.014,4.227-8.092,12.933c-8.394,10.222-15.639,15.648-22.145,16.591C337.32,427.945,336.361,427.988,335.479,427.928
	z"/>
<path d="M378.431,419.807c-2.7-0.189-4.901-1.291-6.54-3.272c-1.504-1.871-2.152-4.58-1.941-8.069
	c0.551-9.055,5.217-18.61,13.861-28.405c7.15-8.128,13.116-12.441,18.237-13.186c0.478-0.067,0.946-0.088,1.392-0.057
	c1,0.07,1.929,0.393,2.755,0.957c1.544,1.131,2.249,2.771,2.114,4.891c-0.178,2.968-1.643,6.638-4.471,11.225
	c-5.585,9.113-13.647,16.138-23.969,20.888l-0.051,0.852c-0.057,0.942,0.11,1.714,0.495,2.293c0.677,1.041,1.713,1.595,3.175,1.697
	c0.572,0.039,1.227,0.009,1.932-0.091c6.025-0.876,13.494-6.918,22.189-17.96c1.771-2.195,3.191-3.304,4.474-3.489
	c0.175-0.022,0.351-0.03,0.521-0.019c0.479,0.033,1.18,0.232,1.809,1.006c0.439,0.593,0.629,1.177,0.594,1.773
	c-0.091,1.461-1.031,4.303-8.149,12.036c-4.044,4.419-8.368,8.213-12.841,11.277c-4.535,3.107-8.766,4.965-12.578,5.517
	C380.378,419.824,379.366,419.871,378.431,419.807z M398.937,377.464c-0.041-0.003-0.113-0.007-0.227,0.013
	c-0.767,0.111-2.3,0.829-5.276,3.639c-3.908,3.648-7.391,8.518-10.371,14.505c2.39-1.326,4.369-2.678,5.9-4.029
	c3.61-3.268,6.574-6.838,8.798-10.609c0.757-1.239,1.16-2.291,1.213-3.134c0.021-0.322-0.036-0.431-0.036-0.431L398.937,377.464z"/>
<path d="M280.445,392.485c-0.162-0.012-0.334-0.002-0.509,0.024c-3.533,0.51-7.73,4.504-12.469,11.873
	c-5.303,8.264-8.152,15.076-8.467,20.248c-0.083,1.355,0.151,1.989,0.362,2.284c0.114,0.159,0.282,0.321,0.694,0.351
	c0.149,0.01,0.316,0.003,0.5-0.023c1.455-0.212,4.077-1.913,8.295-8.825c1.976-3.178,4.494-7.854,7.486-13.912
	c2.035-4.065,3.464-6.707,4.374-8.072c0.401-0.627,1.042-1.372,1.944-2.265c-0.363-0.597-0.752-1.036-1.159-1.311
	C281.16,392.637,280.816,392.512,280.445,392.485z M273.385,434.874c-1.566-2.042-2.363-4.694-2.159-8.026
	c0.013-0.233,0.035-0.501,0.062-0.802c-1.059,1.701-2.107,3.245-3.131,4.616c-3.622,4.813-7.042,7.393-10.46,7.892
	c-0.605,0.088-1.188,0.112-1.739,0.073c-2.302-0.16-4.099-1.391-5.337-3.653c-0.938-1.755-1.333-3.922-1.179-6.452
	c0.362-5.939,2.577-12.824,6.582-20.465c4.452-8.47,9.683-15.333,15.553-20.393c3.921-3.365,7.705-5.33,11.251-5.844
	c0.696-0.102,1.368-0.133,1.996-0.088c1.523,0.105,2.849,0.643,3.937,1.59c1.367,1.245,1.997,2.789,1.886,4.607
	c-0.073,1.194-0.55,2.784-1.451,4.854c0.605,1.002,0.885,1.978,0.832,2.893c-0.081,1.277-0.897,3.235-2.576,6.16
	c-1.591,2.731-3.258,6.349-4.954,10.753c-1.796,4.634-2.204,6.602-2.602,8.823c-0.085,0.488-0.438,2.228-0.127,4.217
	c0.406,2.629,2.69,4.012,4.336,1.225c0.631-1.064,5.019-8.561,12.09-21.738c3.723-6.988,6.676-12.17,8.778-15.399
	c2.303-3.491,4.159-5.226,5.841-5.47c0.208-0.029,0.42-0.04,0.624-0.025c0.726,0.051,1.396,0.371,2.002,0.949
	c0.867,0.832,1.268,1.88,1.193,3.109c-0.08,1.339-0.953,3.222-2.656,5.756c-0.46,0.699-0.904,1.383-1.33,2.055
	c9.31-9.822,15.513-14.851,18.91-15.343c0.375-0.054,0.729-0.071,1.053-0.049c0.903,0.063,2.981,0.578,2.773,4.005
	c-0.109,1.79-1.154,3.915-3.191,6.51c-10.184,12.9-15.615,23.853-16.146,32.549c-0.165,2.697,0.186,4.129,0.314,4.652
	c0.352,1.431,0.172,3.489-0.625,4.32c-0.812,0.963-1.818,1.559-2.958,1.725c-0.388,0.055-0.767,0.071-1.132,0.046
	c-1.992-0.138-3.632-2.12-4.168-3.162c-0.533-1.03-0.775-2.265-0.541-6.101c0.361-5.931,2.538-12.7,6.482-20.172
	c-5.543,5.493-9.824,13.911-16.177,23.038c-5.495,7.894-6.624,8.42-8.361,9.45C281.999,440.447,275.883,438.126,273.385,434.874z"/>
<polygon fill="#FFFFFF" points="187.462,452.998 182.956,396.123 178.168,399.674 182.975,455.626 "/>
<polygon fill="#FFFFFF" stroke="#FFFFFF" stroke-miterlimit="10" points="430.038,418.334 425.157,361.967 430.156,359.06 
	434.962,415.009 "/>
<g>
	<path fill="#FFFFFF" d="M300.932,448.563h2.879v1.099c0.493-0.451,1.04-0.788,1.642-1.011c0.601-0.223,1.257-0.334,1.968-0.334
		c0.718,0,1.365,0.146,1.942,0.439s1.042,0.721,1.394,1.283c0.457-0.563,1.018-0.99,1.684-1.283c0.664-0.293,1.391-0.439,2.18-0.439
		c0.815,0,1.533,0.158,2.152,0.475s1.064,0.729,1.336,1.239c0.27,0.51,0.406,1.339,0.406,2.487v5.607h-2.9v-4.852
		c0-1.084-0.162-1.817-0.486-2.201c-0.322-0.384-0.809-0.576-1.455-0.576c-0.492,0-0.934,0.117-1.323,0.352
		c-0.391,0.234-0.681,0.559-0.87,0.971c-0.189,0.414-0.285,1.077-0.285,1.991v4.315h-2.9v-4.632c0-0.855-0.076-1.475-0.227-1.858
		c-0.152-0.384-0.379-0.67-0.683-0.857c-0.303-0.188-0.669-0.281-1.099-0.281c-0.479,0-0.915,0.119-1.306,0.355
		c-0.392,0.238-0.684,0.57-0.877,0.998s-0.291,1.102-0.291,2.021v4.254h-2.879V448.563z"/>
	<path fill="#FFFFFF" d="M321.244,448.563h2.912v4.605c0,0.896,0.073,1.52,0.221,1.867c0.148,0.35,0.387,0.62,0.715,0.813
		c0.327,0.193,0.73,0.29,1.21,0.29s0.886-0.095,1.222-0.285c0.334-0.19,0.583-0.471,0.745-0.84c0.12-0.275,0.18-0.864,0.18-1.767
		v-4.685h2.88v4.052c0,1.67-0.158,2.813-0.475,3.428c-0.387,0.75-0.957,1.326-1.709,1.728c-0.752,0.4-1.709,0.602-2.869,0.602
		c-1.258,0-2.276-0.234-3.053-0.703c-0.777-0.469-1.324-1.122-1.641-1.96c-0.225-0.58-0.338-1.635-0.338-3.164V448.563z"/>
	<path fill="#FFFFFF" d="M341.241,449.899l-1.782,1.485c-0.725-0.598-1.382-0.896-1.973-0.896c-0.323,0-0.576,0.058-0.759,0.171
		c-0.183,0.115-0.274,0.257-0.274,0.427c0,0.129,0.059,0.248,0.174,0.356c0.116,0.108,0.402,0.256,0.859,0.443l1.055,0.439
		c1.111,0.457,1.874,0.923,2.289,1.397c0.414,0.475,0.622,1.031,0.622,1.67c0,0.85-0.374,1.559-1.123,2.127
		s-1.753,0.853-3.011,0.853c-1.674,0-3.01-0.545-4.008-1.635l1.771-1.608c0.338,0.328,0.732,0.593,1.187,0.796
		c0.454,0.201,0.856,0.303,1.208,0.303c0.379,0,0.686-0.076,0.917-0.229c0.232-0.152,0.349-0.328,0.349-0.527
		c0-0.369-0.419-0.729-1.256-1.081l-0.97-0.404c-1.856-0.779-2.784-1.755-2.784-2.927c0-0.756,0.35-1.402,1.049-1.938
		c0.699-0.537,1.594-0.805,2.685-0.805c0.745,0,1.446,0.137,2.104,0.408C340.227,448.999,340.784,449.39,341.241,449.899z"/>
	<path fill="#FFFFFF" d="M344.844,444.626c0.504,0,0.938,0.152,1.299,0.457c0.36,0.305,0.541,0.674,0.541,1.107
		c0,0.428-0.179,0.793-0.536,1.094c-0.358,0.303-0.785,0.453-1.283,0.453c-0.512,0-0.948-0.154-1.31-0.461
		c-0.361-0.309-0.541-0.682-0.541-1.121c0-0.422,0.178-0.782,0.536-1.081C343.907,444.775,344.338,444.626,344.844,444.626z
		 M343.404,448.563h2.879v9.563h-2.879V448.563z"/>
	<path fill="#FFFFFF" d="M360.131,450.497l-2.396,1.099c-0.451-0.393-0.896-0.665-1.336-0.817s-0.955-0.229-1.547-0.229
		c-1.077,0-1.948,0.268-2.613,0.803c-0.666,0.535-0.998,1.222-0.998,2.058c0,0.813,0.32,1.478,0.961,1.992s1.482,0.772,2.523,0.772
		c1.289,0,2.291-0.366,3.01-1.099l2.271,1.296c-1.231,1.333-2.968,2-5.21,2c-2.019,0-3.599-0.498-4.741-1.494
		s-1.714-2.162-1.714-3.498c0-0.926,0.277-1.778,0.833-2.558s1.331-1.392,2.325-1.837c0.996-0.445,2.107-0.668,3.339-0.668
		c1.139,0,2.162,0.189,3.069,0.566C358.813,449.263,359.555,449.8,360.131,450.497z"/>
	<path fill="#FFFFFF" d="M380.002,450.497l-2.397,1.099c-0.45-0.393-0.896-0.665-1.336-0.817s-0.956-0.229-1.547-0.229
		c-1.077,0-1.948,0.268-2.613,0.803s-0.998,1.222-0.998,2.058c0,0.813,0.32,1.478,0.961,1.992s1.481,0.772,2.523,0.772
		c1.288,0,2.292-0.366,3.01-1.099l2.271,1.296c-1.23,1.333-2.967,2-5.211,2c-2.018,0-3.598-0.498-4.74-1.494
		s-1.714-2.162-1.714-3.498c0-0.926,0.278-1.778,0.833-2.558c0.556-0.779,1.33-1.392,2.326-1.837
		c0.994-0.445,2.107-0.668,3.338-0.668c1.139,0,2.162,0.189,3.068,0.566C378.684,449.263,379.425,449.8,380.002,450.497z"/>
	<path fill="#FFFFFF" d="M394.092,454.039h-9.249c0.134,0.68,0.49,1.221,1.07,1.622s1.319,0.602,2.22,0.602
		c1.076,0,2-0.313,2.774-0.94l2.426,0.949c-0.604,0.715-1.329,1.243-2.173,1.587c-0.844,0.342-1.846,0.514-3.006,0.514
		c-1.801,0-3.266-0.473-4.398-1.42c-1.132-0.945-1.697-2.131-1.697-3.555c0-1.459,0.564-2.67,1.692-3.635
		c1.128-0.963,2.544-1.445,4.245-1.445c1.807,0,3.276,0.482,4.408,1.445c1.133,0.965,1.698,2.237,1.698,3.819L394.092,454.039z
		 M391.213,452.149c-0.189-0.533-0.565-0.967-1.125-1.301c-0.561-0.334-1.21-0.501-1.949-0.501c-0.803,0-1.508,0.188-2.113,0.563
		c-0.38,0.234-0.732,0.647-1.057,1.239H391.213z"/>
	<path fill="#FFFFFF" d="M396.423,448.563h2.88v0.98c0.652-0.459,1.244-0.778,1.773-0.958c0.53-0.179,1.072-0.269,1.627-0.269
		c1.139,0,2.104,0.331,2.896,0.993c0.668,0.563,1.001,1.395,1.001,2.496v6.319h-2.848v-4.188c0-1.142-0.062-1.899-0.185-2.273
		c-0.123-0.375-0.336-0.66-0.642-0.856s-0.683-0.294-1.131-0.294c-0.583,0-1.082,0.162-1.499,0.487
		c-0.418,0.325-0.707,0.774-0.869,1.348c-0.084,0.299-0.125,0.945-0.125,1.94v3.836h-2.88V448.563z"/>
	<path fill="#FFFFFF" d="M409.733,445.039h2.879v3.524h1.709v2.065h-1.709v7.497h-2.879v-7.497h-1.477v-2.065h1.477V445.039z"/>
	<path fill="#FFFFFF" d="M427.357,454.039h-9.25c0.133,0.68,0.49,1.221,1.07,1.622s1.32,0.602,2.221,0.602
		c1.075,0,2-0.313,2.773-0.94l2.426,0.949c-0.605,0.715-1.329,1.243-2.173,1.587c-0.844,0.342-1.846,0.514-3.006,0.514
		c-1.8,0-3.267-0.473-4.397-1.42c-1.133-0.945-1.699-2.131-1.699-3.555c0-1.459,0.564-2.67,1.693-3.635
		c1.129-0.963,2.543-1.445,4.245-1.445c1.808,0,3.276,0.482,4.409,1.445c1.131,0.965,1.697,2.237,1.697,3.819L427.357,454.039z
		 M424.478,452.149c-0.19-0.533-0.565-0.967-1.125-1.301s-1.21-0.501-1.949-0.501c-0.804,0-1.507,0.188-2.112,0.563
		c-0.381,0.234-0.733,0.647-1.057,1.239H424.478z"/>
	<path fill="#FFFFFF" d="M429.013,448.563h2.468v1.204c0.268-0.475,0.623-0.835,1.065-1.081c0.443-0.246,0.929-0.369,1.456-0.369
		c0.372,0,0.762,0.082,1.17,0.246l-0.896,2.065c-0.337-0.141-0.615-0.211-0.833-0.211c-0.442,0-0.817,0.229-1.123,0.686
		s-0.459,1.354-0.459,2.689l0.011,0.466v3.867h-2.858V448.563z"/>
</g>
</svg>
