<?xml version="1.0" encoding="utf-8"?>
<!-- Generator: Adobe Illustrator 16.2.1, SVG Export Plug-In . SVG Version: 6.00 Build 0)  -->
<!DOCTYPE svg PUBLIC "-//W3C//DTD SVG 1.1//EN" "http://www.w3.org/Graphics/SVG/1.1/DTD/svg11.dtd">
<svg version="1.1" id="Layer_1" xmlns="http://www.w3.org/2000/svg" xmlns:xlink="http://www.w3.org/1999/xlink" x="0px" y="0px"
	 width="50px" height="50px" viewBox="0 0 50 50" enable-background="new 0 0 50 50" xml:space="preserve">
<path fill="#95DACF" d="M25,1.146c-12.929,0-23.412,10.482-23.412,23.412c0,12.928,10.482,23.41,23.412,23.41
	c12.928,0,23.411-10.482,23.411-23.41C48.411,11.629,37.929,1.146,25,1.146z M25,43.544c-10.008,0-18.21-7.789-18.917-17.62h3.01
	c0.755,0,1.367-0.612,1.367-1.365c0-0.754-0.611-1.366-1.367-1.366h-3.01C6.79,13.361,14.992,5.572,25,5.572
	s18.212,7.789,18.916,17.62h-3.009c-0.755,0-1.367,0.612-1.367,1.366c0,0.753,0.611,1.365,1.367,1.365h3.009
	C43.212,35.755,35.008,43.544,25,43.544z M26.367,10.062v14.763l-3.995,9.844c-0.216,0.531-0.727,0.853-1.266,0.853
	c-0.172,0-0.345-0.032-0.513-0.1c-0.699-0.285-1.036-1.082-0.753-1.78l3.794-9.35V10.062c0-0.755,0.611-1.365,1.366-1.365
	C25.756,8.697,26.367,9.308,26.367,10.062z"/>
</svg>
