<?xml version="1.0" encoding="utf-8"?>
<!-- Generator: Adobe Illustrator 16.2.1, SVG Export Plug-In . SVG Version: 6.00 Build 0)  -->
<!DOCTYPE svg PUBLIC "-//W3C//DTD SVG 1.1//EN" "http://www.w3.org/Graphics/SVG/1.1/DTD/svg11.dtd">
<svg version="1.1" id="Layer_1" xmlns="http://www.w3.org/2000/svg" xmlns:xlink="http://www.w3.org/1999/xlink" x="0px" y="0px"
	 width="50px" height="50px" viewBox="0 0 50 50" enable-background="new 0 0 50 50" xml:space="preserve">
<path fill-rule="evenodd" clip-rule="evenodd" fill="#95DACF" d="M40.979,11.609c-1.866-6.16-7.856-11.492-15.599-11.432
	C25.371,0.117,25.36,0.062,25.35,0c-1.662,0.312-3.398,0.411-4.971,0.969C14.209,3.163,10.373,7.471,9.278,14.002
	c-0.492,2.924-0.269,5.826,1.019,8.563c3.774,8.014,7.55,16.026,11.337,24.034c0.211,0.444,0.468,0.895,0.8,1.25
	c2.007,2.138,5.503,1.479,6.788-1.297c3.501-7.596,7.026-15.179,10.691-22.693C41.865,19.854,42.244,15.788,40.979,11.609z
	 M25.385,24.661c-4.548,0.002-8.182-3.662-8.162-8.225c0.021-4.519,3.664-8.123,8.202-8.107c4.522,0.015,8.138,3.655,8.127,8.18
	C33.539,21.036,29.909,24.661,25.385,24.661z"/>
</svg>
