<?xml version="1.0" encoding="utf-8"?>
<!-- Generator: Adobe Illustrator 16.0.3, SVG Export Plug-In . SVG Version: 6.00 Build 0)  -->
<!DOCTYPE svg PUBLIC "-//W3C//DTD SVG 1.1//EN" "http://www.w3.org/Graphics/SVG/1.1/DTD/svg11.dtd">
<svg version="1.1" id="Layer_1" xmlns="http://www.w3.org/2000/svg" xmlns:xlink="http://www.w3.org/1999/xlink" x="0px" y="0px"
	 width="50px" height="50px" viewBox="0 0 50 50" enable-background="new 0 0 50 50" xml:space="preserve">
<path fill="#95DACF" d="M36.993,26.107c0.731-3.868,0.229-6.936-1.488-9.113c-2.54-3.222-6.921-3.471-6.966-3.473
	c-0.497-0.024-0.878-0.445-0.855-0.941c0.026-0.497,0.366-0.89,0.942-0.856c0.212,0.01,5.249,0.297,8.292,4.156
	c2.055,2.606,2.676,6.16,1.842,10.562c-0.078,0.433-0.457,0.734-0.878,0.734c-0.059,0-0.114-0.008-0.172-0.019
	C37.223,27.066,36.902,26.596,36.993,26.107z M42.025,10.833c-4.522-5.737-11.998-6.16-12.313-6.176
	c-0.988-0.021-1.836,0.717-1.887,1.709c-0.047,0.991,0.719,1.838,1.712,1.886c0.062,0.002,6.146,0.346,9.662,4.81
	c2.383,3.021,3.069,7.301,2.045,12.724c-0.185,0.975,0.458,1.915,1.432,2.101c0.115,0.023,0.228,0.031,0.339,0.031
	c0.846,0,1.602-0.6,1.764-1.464C46.008,19.962,45.082,14.707,42.025,10.833z M34.125,30.777c-0.122-0.205-0.323-0.353-0.555-0.408
	c-0.234-0.057-0.475-0.02-0.68,0.105l-3.714,2.262c-1.241,0.756-2.959,0.326-3.708-0.902L18.92,21.078
	c-0.772-1.271-0.368-2.936,0.901-3.709l3.715-2.261c0.203-0.124,0.349-0.324,0.408-0.555c0.057-0.235,0.018-0.479-0.108-0.684
	L15.417,0.04c-0.26-0.426-0.817-0.56-1.237-0.3l-2.943,1.79c-5.508,3.357-7.26,10.563-3.909,16.072l15.903,26.123
	c2.139,3.517,5.88,5.616,10,5.616h0.002c2.137,0,4.238-0.593,6.07-1.709l2.944-1.791c0.425-0.255,0.558-0.813,0.3-1.235
	L34.125,30.777z"/>
</svg>
