<?xml version="1.0" encoding="utf-8"?>
<!-- Generator: Adobe Illustrator 16.0.3, SVG Export Plug-In . SVG Version: 6.00 Build 0)  -->
<!DOCTYPE svg PUBLIC "-//W3C//DTD SVG 1.1//EN" "http://www.w3.org/Graphics/SVG/1.1/DTD/svg11.dtd">
<svg version="1.1" id="Layer_1" xmlns="http://www.w3.org/2000/svg" xmlns:xlink="http://www.w3.org/1999/xlink" x="0px" y="0px"
	 width="215px" height="215px" viewBox="0 0 215 215" enable-background="new 0 0 215 215" xml:space="preserve">
<path fill="#95DACF" d="M166.691,73.749c0-4.162,0-6.939,0-6.939c0-1.062-0.414-2.057-1.123-2.721
	c-0.715-0.66-1.668-0.943-2.62-0.763l-28.427,10.423H70.156c0.477-1.062,0.906-2.094,1.241-3.07
	c3.245-9.493,1.499-22.447-6.054-25.422C54.033,40.784,45.584,58.3,51.287,81.982c-1.008,0.96-2.052,1.877-3.116,2.765
	c-12.345,10.242-17.073,23.897-16.137,34.026c2.572,27.851,26.681,30.369,36.719,25.979c1.8-0.784,3.487-1.703,5.062-2.716
	c0.747,8.798-1.646,16.407-6.027,18.753c-1.274,0.688-0.758-0.282-0.723-2.591c0.094-5.607-4.818-9.548-9.307-8.884
	c-4.492,0.656-7.604,5.691-6.954,11.258c0.921,7.893,7.935,10.97,13.878,9.527c6.446-1.563,11.766-8.07,13.133-18.332h103.234
	v-2.703H78.076c0.186-3.018,0.065-6.299-0.453-9.848c2.426-2.062,4.32-4.27,5.865-6.549h20.7c0.505,2.184,1.767,4.167,3.688,5.721
	c2.362,1.914,5.474,2.963,8.759,2.963c6.145,0,11.69-3.735,12.956-8.684h51.457v-2.699h-51.182
	c-0.003-1.974-0.015-8.828-0.027-16.395h11.677c0.45,2.291,1.707,4.389,3.715,6.015c2.369,1.907,5.477,2.956,8.769,2.956
	c6.258,0,11.444-3.885,12.478-8.971h14.572v-2.706h-14.357c0-2.284,0-8.923,0-16.394h14.357V91.77h-14.357c0-5.326,0-10.83,0-15.316
	h14.357v-0.001v-2.704H166.691z M58.262,56.873c2.73,0.036,4.248,4.427,3.637,8.414c-0.695,4.552-3.48,9.062-7.154,13.175
	C51.859,65.887,53.07,56.783,58.262,56.873z M66.795,135.063c-4.453,0.586-13.373-0.373-16.954-12.055
	c-3.204-10.488,2.661-21.722,6.192-27.263c0.42,0.936,1.367,3.095,1.832,4.03c-2.162,2.958-3.484,6.358-4.039,9.519
	c-1.184,6.78,1.551,12.412,4.348,14.823c1.152,0.978,2.93,0.4,2.867-1.063c-0.117-2.746,1.925-5.062,5.067-6.914
	c3.017,6.65,4.63,11.312,5.973,16.438C70.447,133.91,68.6,134.827,66.795,135.063z M75.326,129.034
	c-1.389-4.652-2.81-8.545-5.371-14.13c2.86-0.887,5.893,0.498,7.295,4.632C78.291,122.593,77.271,126.126,75.326,129.034z
	 M80.836,94.475h44.786l0.03,16.394H89.365C88.764,104.027,85.73,97.849,80.836,94.475z M116.637,119.732
	c-6.77,0-12.271,4.545-12.628,10.236h-18.87c2.078-3.83,3.248-7.783,3.91-11.561c0.279-1.614,0.421-3.234,0.43-4.834h36.175
	l0.016,9.386C123.367,120.971,120.174,119.732,116.637,119.732z M127.415,76.453c-1.077,0.744-1.817,2.068-1.817,3.495l0.019,11.821
	h-54.14c-4.378,0.246-7.897,2.404-10.593,4.732c-0.502-1.146-1.479-3.504-1.926-4.629c2.533-3.275,6.86-9.53,9.898-15.42
	L127.415,76.453L127.415,76.453z M162.965,104.093c-2.3-1.959-5.473-3.166-8.966-3.166c-6.659,0-12.065,4.391-12.593,9.942h-11.568
	c-0.01-6.002-0.018-12.118-0.023-16.394h33.15V104.093z M129.809,91.77c0-1.858-0.004-2.979-0.004-2.979
	c0.029,0,31.254-11.66,33.07-12.337c0.09-0.001,0.09,15.316,0.09,15.316H129.809z M107.5,0C48.225,0,0,48.225,0,107.501
	C0,166.775,48.225,215,107.5,215c59.275,0,107.5-48.225,107.5-107.499C215,48.225,166.775,0,107.5,0z M107.5,194.674
	c-48.068,0-87.174-39.105-87.174-87.173c0-48.068,39.107-87.174,87.174-87.174c48.066,0,87.174,39.106,87.174,87.174
	C194.674,155.568,155.568,194.674,107.5,194.674z"/>
</svg>
