<?xml version="1.0" encoding="utf-8"?>
<!-- Generator: Adobe Illustrator 16.2.1, SVG Export Plug-In . SVG Version: 6.00 Build 0)  -->
<!DOCTYPE svg PUBLIC "-//W3C//DTD SVG 1.1//EN" "http://www.w3.org/Graphics/SVG/1.1/DTD/svg11.dtd">
<svg version="1.1" id="Layer_1" xmlns="http://www.w3.org/2000/svg" xmlns:xlink="http://www.w3.org/1999/xlink" x="0px" y="0px"
	 width="215px" height="215px" viewBox="0 0 215 215" enable-background="new 0 0 215 215" xml:space="preserve">
<g>
	<path fill="#95DACF" d="M107.5,215C48.224,215,0,166.775,0,107.501C0,48.226,48.224,0,107.5,0C166.775,0,215,48.226,215,107.501
		C215,166.775,166.775,215,107.5,215z M107.5,20.326c-48.067,0-87.173,39.106-87.173,87.175c0,48.067,39.106,87.173,87.173,87.173
		s87.174-39.105,87.174-87.173C194.674,59.433,155.567,20.326,107.5,20.326z"/>
</g>
<g>
	<path fill="#95DACF" d="M163.652,58.98c-1.077-1.366-2.087-2.793-3.249-4.083c-1.319-1.464-2.723-2.861-4.186-4.183
		c-0.984-0.888-2.134-1.592-3.209-2.378c3.548,0,7.096,0,10.644,0C163.652,51.885,163.652,55.433,163.652,58.98z"/>
	<g>
		<path fill="#95DACF" d="M163.652,61.208c-1.066,1.483-2.131,2.967-3.24,4.51c1.489,2.137,1.628,3.282,0.429,4.356
			c-1.184,1.062-2.321,0.875-4.429-0.852c-0.3,0.394-0.615,0.809-0.755,0.991c0.39,1.169,0.853,2.189,1.028,3.256
			c0.073,0.446-0.36,1.095-0.741,1.473c-1.072,1.065-2.353,0.819-4.301-0.758c-0.375,0.336-0.712,0.791-1.162,1.009
			c-0.941,0.455-1.963,1.141-2.915,1.086c-1.368-0.08-2.103,0.535-2.937,1.374c-6.254,6.289-12.532,12.555-18.81,18.819
			c-0.32,0.318-0.713,0.564-1.092,0.859c1.095,1.41,2.097,2.61,2.999,3.882c2.625,3.702,4.569,7.681,5.297,12.239
			c1.157,7.249-2.909,14.765-9.707,17.568c-1.749,0.722-3.53,1.374-5.327,1.969c-4.27,1.414-6.509,4.397-7.367,8.761
			c-0.888,4.516-1.798,9.065-3.225,13.428c-2.077,6.349-6.027,11.535-11.476,15.427c-6.267,4.475-13.173,5.015-20.39,2.766
			c-6.332-1.976-11.767-5.515-16.696-9.856c-5.552-4.888-10.783-10.089-14.934-16.271c-3.182-4.738-5.621-9.81-6.35-15.527
			c-0.824-6.456,0.848-12.257,5.055-17.268c5.545-6.606,12.77-10.24,21.117-11.873c2.546-0.497,5.092-0.998,7.632-1.521
			c3.715-0.766,6.09-3.046,7.439-6.537c0.963-2.493,1.845-5.042,3.081-7.4c2.551-4.868,6.896-7.298,12.181-8.071
			c5.479-0.802,10.314,1.134,14.829,3.995c1.942,1.23,3.756,2.663,5.67,4.034c0.249-0.235,0.523-0.48,0.784-0.741
			c6.535-6.532,13.064-13.072,19.612-19.592c0.537-0.534,0.792-1.023,0.696-1.83c-0.228-1.901,0.824-3.285,2.142-4.469
			c-1.603-2.461-1.732-3.545-0.582-4.594c1.122-1.023,2.347-0.824,4.304,0.733c0.204-0.161,0.432-0.321,0.634-0.508
			c0.178-0.164,0.329-0.358,0.327-0.355c-0.438-1.144-0.938-2.112-1.144-3.141c-0.089-0.447,0.321-1.109,0.685-1.511
			c1.033-1.141,2.165-0.947,4.257,0.508c1.543-1.108,3.027-2.174,4.51-3.239c0.743,0,1.485,0,2.228,0
			c1.076,0.786,2.226,1.49,3.209,2.378c1.463,1.321,2.867,2.719,4.186,4.183c1.162,1.29,2.172,2.717,3.249,4.083
			C163.652,59.723,163.652,60.466,163.652,61.208z M109.771,92.104c-3.412-2.882-6.839-5.123-10.928-6.136
			c-4.639-1.148-10.05,0.874-11.947,6.265c-0.478,1.358-0.979,2.708-1.492,4.055c-1.957,5.125-5.057,9.192-10.558,10.793
			c-2.72,0.791-5.513,1.37-8.306,1.865c-6.423,1.137-12.262,3.408-17.046,8.035c-4.596,4.445-6.3,9.677-4.789,15.949
			c1.033,4.285,3.088,8.053,5.592,11.609c3.319,4.717,7.396,8.755,11.609,12.643c4.45,4.107,9.319,7.614,15.154,9.547
			c6.588,2.182,12.501,1.233,17.525-3.815c3.66-3.678,6.192-8.014,7.43-13.045c1.002-4.074,1.739-8.214,2.764-12.282
			c0.99-3.926,3.25-7.072,6.861-8.961c2.612-1.365,5.401-2.408,8.154-3.482c4.422-1.728,6.703-5.09,6.514-9.834
			c-0.114-2.88-1.16-5.475-2.644-7.879c-1.086-1.76-2.365-3.4-3.595-5.147c-0.376,0.352-0.561,0.515-0.734,0.688
			c-5.076,5.072-10.155,10.142-15.211,15.233c-0.252,0.255-0.363,0.706-0.42,1.084c-0.104,0.689-0.087,1.396-0.173,2.089
			c-1.052,8.421-11.147,12.8-17.956,7.794c-4.287-3.153-5.846-8.146-4.15-13.288c1.49-4.514,6.007-7.598,11.058-7.629
			c0.534-0.004,1.194-0.298,1.579-0.677c4.521-4.461,8.997-8.967,13.496-13.45C108.227,93.458,108.953,92.848,109.771,92.104z
			 M142.137,66.704c0.237-0.165,0.743-0.424,1.13-0.805c2.404-2.365,4.782-4.757,7.167-7.143c0.727-0.727,1.471-1.438,2.163-2.197
			c0.575-0.63,0.633-1.366,0.029-1.997c-0.641-0.668-1.381-0.637-2.086-0.037c-0.156,0.134-0.304,0.277-0.449,0.423
			c-2.94,2.935-5.88,5.868-8.814,8.81c-0.259,0.26-0.524,0.536-0.699,0.853C140.045,65.573,140.721,66.69,142.137,66.704z
			 M145.059,70.247c0.391,0.454,0.673,1.085,1.053,1.151c0.554,0.096,1.367-0.019,1.744-0.383c3.193-3.086,6.316-6.247,9.452-9.394
			c0.712-0.714,0.879-1.538,0.1-2.272c-0.739-0.696-1.515-0.456-2.181,0.209c-3.115,3.107-6.234,6.213-9.33,9.342
			C145.573,69.228,145.394,69.699,145.059,70.247z"/>
		<path fill="#95DACF" d="M79.679,152.68c-0.475-0.305-0.939-0.5-1.27-0.829c-6.103-6.081-12.195-12.173-18.275-18.276
			c-0.938-0.94-0.925-1.596-0.013-2.557c0.793-0.838,1.621-1.645,2.444-2.453c1.125-1.106,1.813-1.117,2.924-0.008
			c4.727,4.717,9.446,9.442,14.167,14.164c1.282,1.282,2.574,2.556,3.844,3.851c0.995,1.017,0.992,1.726,0,2.753
			c-0.83,0.861-1.665,1.719-2.539,2.532C80.618,152.177,80.162,152.377,79.679,152.68z"/>
	</g>
</g>
</svg>
