<?xml version="1.0" encoding="utf-8"?>
<!-- Generator: Adobe Illustrator 16.0.3, SVG Export Plug-In . SVG Version: 6.00 Build 0)  -->
<!DOCTYPE svg PUBLIC "-//W3C//DTD SVG 1.1//EN" "http://www.w3.org/Graphics/SVG/1.1/DTD/svg11.dtd">
<svg version="1.1" id="Layer_1" xmlns="http://www.w3.org/2000/svg" xmlns:xlink="http://www.w3.org/1999/xlink" x="0px" y="0px"
	 width="215px" height="215px" viewBox="0 0 215 215" enable-background="new 0 0 215 215" xml:space="preserve">
<path fill="#95DACF" d="M107.5,0C48.224,0,0,48.226,0,107.501C0,166.775,48.224,215,107.5,215c59.275,0,107.5-48.225,107.5-107.499
	C215,48.226,166.775,0,107.5,0z M107.5,194.674c-48.067,0-87.173-39.105-87.173-87.173c0-48.069,39.106-87.175,87.173-87.175
	c48.066,0,87.174,39.107,87.174,87.175C194.674,155.568,155.566,194.674,107.5,194.674z M156.525,92.657
	c0.004,0.108,0.019,0.216,0.019,0.324v4.564c-4.207,12.35-26.649,22.117-52.75,22.117c-26.101,0-48.544-9.766-52.75-22.117v-4.564
	c0-15.216,23.617-27.551,52.75-27.551c4.371,0,8.616,0.285,12.679,0.807c-3.459,1.719-6.871,3.536-10.224,5.479
	c-0.812-0.02-1.63-0.032-2.456-0.032c-27.402,0-46.497,11.225-46.497,21.298c0,9.305,16.297,19.583,40.378,21.1
	c2.009-0.121,4.048-0.189,6.119-0.189c2.071,0,4.109,0.068,6.118,0.189c22.96-1.446,38.834-10.858,40.262-19.796
	C152.285,93.733,154.393,93.156,156.525,92.657z M130.484,75.748c2.652-1.208,5.328-2.37,8.019-3.501
	c4.442,2.031,8.213,4.448,11.151,7.144c-2.508,0.713-5.02,1.457-7.562,1.934C138.984,79.213,135.07,77.301,130.484,75.748z
	 M79.253,123.547v42.281c-16.771-4.613-28.21-13.799-28.21-24.387v-32.658C57.135,115.338,67.049,120.541,79.253,123.547z
	 M103.792,126.395c5.83,0,11.438-0.444,16.724-1.278v42.454c-5.257,0.916-10.875,1.422-16.724,1.422
	c-5.848,0-11.467-0.506-16.724-1.422v-42.454C92.354,125.95,97.961,126.395,103.792,126.395z M156.542,108.783v32.658
	c0,10.588-11.44,19.774-28.21,24.387v-42.281C140.536,120.541,150.45,115.338,156.542,108.783z M105.8,79.312l53.656-32.783
	c7.185-1.412,2.444,4.169,2.444,4.169l-54.878,30.698C101.698,82.895,105.8,79.312,105.8,79.312z M178.207,80.77l-61.16,14.613
	c-5.529-0.007-0.607-2.338-0.607-2.338l60.55-16.952C184.287,76.69,178.207,80.77,178.207,80.77z"/>
</svg>
