<?xml version="1.0" encoding="utf-8"?>
<!-- Generator: Adobe Illustrator 16.2.1, SVG Export Plug-In . SVG Version: 6.00 Build 0)  -->
<!DOCTYPE svg PUBLIC "-//W3C//DTD SVG 1.1//EN" "http://www.w3.org/Graphics/SVG/1.1/DTD/svg11.dtd">
<svg version="1.1" id="Layer_1" xmlns="http://www.w3.org/2000/svg" xmlns:xlink="http://www.w3.org/1999/xlink" x="0px" y="0px"
	 width="215px" height="215px" viewBox="0 0 215 215" enable-background="new 0 0 215 215" xml:space="preserve">
<g>
	<path fill="#95DACF" d="M107.5,215C48.225,215,0,166.776,0,107.501C0,48.225,48.225,0,107.5,0C166.775,0,215,48.225,215,107.501
		C215,166.776,166.775,215,107.5,215z M107.5,20.327c-48.067,0-87.174,39.106-87.174,87.174s39.106,87.173,87.174,87.173
		c48.068,0,87.173-39.105,87.173-87.173S155.568,20.327,107.5,20.327z"/>
</g>
<g>
	<path fill="#95DACF" d="M109.536,156.588c-15.597,0.001-31.195,0.012-46.792-0.005c-6.777-0.007-8.405-1.659-8.409-8.539
		c-0.012-24.317-0.038-48.635,0.007-72.951c0.029-16.335,12.669-27.433,29.019-26.646c13.097,0.632,21.52,7.085,26.846,18.439
		c2.443,5.21,4.713,10.506,6.904,15.826c5.419,13.154,13.594,21.984,29.184,22.965c12.631,0.794,18.947,8.082,20.019,20.774
		c0.604,7.163,0.373,14.436-0.018,21.63c-0.344,6.335-3.106,8.489-9.6,8.499C140.977,156.603,125.256,156.588,109.536,156.588z
		 M159.151,129.305c-2.931,0-5.459,0-8.549,0c0,5.357,0,10.541,0,15.699c-2.354,0-4.136,0-6.263,0c0-5.339,0-10.444,0-15.639
		c-1.865,0-3.367,0-5.203,0c0,5.349,0,10.453,0,15.565c-2.219,0-4.087,0-6.383,0c0-5.394,0-10.483,0-15.623
		c-1.734,0-3.027,0-4.721,0c0,5.272,0,10.367,0,15.695c-2.283,0-4.164,0-6.519,0c0-5.363,0-10.565,0-15.925
		c-1.892,0.087-3.303,0.15-5.106,0.233c0,5.437,0,10.53,0,15.694c-2.188,0-3.959,0-6.145,0c0-5.332,0-10.437,0-15.705
		c-1.823,0-3.228,0-5.125,0c0,5.369,0,10.57,0,15.601c-2.383,0-4.268,0-6.525,0c0-5.439,0-10.54,0-15.568c-1.687,0-2.991,0-4.72,0
		c0,5.305,0,10.404,0,15.635c-2.301,0-4.169,0-6.394,0c0-5.379,0-10.486,0-15.695c-1.786,0-3.209,0-5.095,0
		c0,5.348,0,10.552,0,15.757c-2.26,0-4.049,0-6.387,0c0-5.382,0-10.574,0-15.942c-1.855,0.082-3.148,0.14-4.836,0.214
		c0,5.37,0,10.465,0,15.688c-2.292,0-4.173,0-6.394,0c0-5.357,0-10.465,0-15.66c-1.995,0-3.644,0-5.459,0c0,7.154,0,14.093,0,21.153
		c33.398,0,66.574,0,99.821,0C159.151,143.311,159.151,136.463,159.151,129.305z"/>
	<path fill-rule="evenodd" clip-rule="evenodd" fill="#FFFFFF" d="M159.151,129.305c0,7.158,0,14.006,0,21.177
		c-33.247,0-66.423,0-99.821,0c0-7.061,0-13.999,0-21.153c1.815,0,3.464,0,5.459,0c0,5.195,0,10.303,0,15.66c2.22,0,4.101,0,6.394,0
		c0-5.223,0-10.317,0-15.688c1.688-0.074,2.981-0.132,4.836-0.214c0,5.368,0,10.561,0,15.942c2.338,0,4.127,0,6.387,0
		c0-5.205,0-10.409,0-15.757c1.886,0,3.309,0,5.095,0c0,5.209,0,10.316,0,15.695c2.224,0,4.092,0,6.394,0c0-5.23,0-10.33,0-15.635
		c1.729,0,3.033,0,4.72,0c0,5.028,0,10.129,0,15.568c2.257,0,4.142,0,6.525,0c0-5.03,0-10.231,0-15.601c1.897,0,3.302,0,5.125,0
		c0,5.269,0,10.373,0,15.705c2.186,0,3.956,0,6.145,0c0-5.164,0-10.258,0-15.694c1.804-0.083,3.215-0.146,5.106-0.233
		c0,5.359,0,10.562,0,15.925c2.354,0,4.235,0,6.519,0c0-5.328,0-10.423,0-15.695c1.693,0,2.986,0,4.721,0c0,5.14,0,10.229,0,15.623
		c2.296,0,4.164,0,6.383,0c0-5.112,0-10.217,0-15.565c1.836,0,3.338,0,5.203,0c0,5.194,0,10.3,0,15.639c2.127,0,3.909,0,6.263,0
		c0-5.158,0-10.342,0-15.699C153.692,129.305,156.221,129.305,159.151,129.305z"/>
</g>
</svg>
