<?xml version="1.0" encoding="utf-8"?>
<!-- Generator: Adobe Illustrator 16.2.1, SVG Export Plug-In . SVG Version: 6.00 Build 0)  -->
<!DOCTYPE svg PUBLIC "-//W3C//DTD SVG 1.1//EN" "http://www.w3.org/Graphics/SVG/1.1/DTD/svg11.dtd">
<svg version="1.1" id="Layer_1" xmlns="http://www.w3.org/2000/svg" xmlns:xlink="http://www.w3.org/1999/xlink" x="0px" y="0px"
	 width="215px" height="215px" viewBox="0 0 215 215" enable-background="new 0 0 215 215" xml:space="preserve">
<g>
	<path fill="#95DACF" d="M107.5,215C48.224,215,0,166.775,0,107.501C0,48.226,48.224,0,107.5,0C166.775,0,215,48.226,215,107.501
		C215,166.775,166.775,215,107.5,215z M107.5,20.326c-48.067,0-87.173,39.106-87.173,87.175c0,48.067,39.106,87.173,87.173,87.173
		s87.174-39.105,87.174-87.173C194.674,59.433,155.567,20.326,107.5,20.326z"/>
</g>
<g>
	<g>
		<path fill="#95DACF" d="M150.173,94.286c-1.428,8.938-17.302,18.35-40.262,19.796c-2.009-0.121-4.047-0.19-6.118-0.19
			s-4.11,0.069-6.119,0.19c-24.081-1.517-40.378-11.795-40.378-21.1c0-10.073,19.095-21.298,46.497-21.298
			c0.826,0,1.644,0.012,2.456,0.032c3.352-1.943,6.764-3.76,10.223-5.479c-4.062-0.522-8.307-0.807-12.678-0.807
			c-29.133,0-52.75,12.335-52.75,27.551v4.564c4.206,12.351,26.649,22.117,52.75,22.117c26.1,0,48.543-9.767,52.75-22.117v-4.564
			c0-0.108-0.014-0.216-0.018-0.324C154.393,93.156,152.285,93.733,150.173,94.286z"/>
		<path fill="#95DACF" d="M149.655,79.391c-2.939-2.696-6.71-5.113-11.152-7.144c-2.691,1.131-5.366,2.293-8.019,3.501
			c4.586,1.553,8.5,3.465,11.609,5.577C144.635,80.848,147.146,80.104,149.655,79.391z"/>
		<g>
			<path fill="#95DACF" d="M79.253,123.547c-12.204-3.006-22.118-8.209-28.21-14.764v32.658c0,10.588,11.439,19.774,28.21,24.387
				V123.547z"/>
			<path fill="#95DACF" d="M120.516,125.116c-5.286,0.834-10.894,1.278-16.724,1.278c-5.831,0-11.438-0.444-16.724-1.278v42.454
				c5.257,0.917,10.876,1.422,16.724,1.422s11.467-0.505,16.724-1.422V125.116z"/>
			<path fill="#95DACF" d="M128.332,123.547v42.281c16.77-4.612,28.21-13.799,28.21-24.387v-32.658
				C150.45,115.338,140.536,120.541,128.332,123.547z"/>
		</g>
	</g>
	<path fill="#95DACF" d="M105.8,79.312c0,0-4.102,3.583,1.222,2.084L161.9,50.698c0,0,4.741-5.581-2.444-4.169L105.8,79.312z"/>
	<path fill="#95DACF" d="M116.439,93.045c0,0-4.922,2.331,0.608,2.338l61.16-14.613c0,0,6.08-4.08-1.218-4.677L116.439,93.045z"/>
</g>
</svg>
