<?xml version="1.0" encoding="utf-8"?>
<!-- Generator: Adobe Illustrator 16.2.1, SVG Export Plug-In . SVG Version: 6.00 Build 0)  -->
<!DOCTYPE svg PUBLIC "-//W3C//DTD SVG 1.1//EN" "http://www.w3.org/Graphics/SVG/1.1/DTD/svg11.dtd">
<svg version="1.1" id="Layer_1" xmlns="http://www.w3.org/2000/svg" xmlns:xlink="http://www.w3.org/1999/xlink" x="0px" y="0px"
	 width="215px" height="215px" viewBox="0 0 215 215" enable-background="new 0 0 215 215" xml:space="preserve">
<g>
	<path fill="#95DACF" d="M107.5,215C48.225,215,0,166.776,0,107.501C0,48.225,48.225,0,107.5,0S215,48.225,215,107.501
		C215,166.776,166.775,215,107.5,215z M107.5,20.327c-48.067,0-87.174,39.106-87.174,87.174s39.106,87.173,87.174,87.173
		s87.174-39.105,87.174-87.173S155.567,20.327,107.5,20.327z"/>
</g>
<path fill="#95DACF" d="M77.446,95.543c5.506,0,10.81,0.039,16.112-0.014c3.505-0.035,4.83-1.551,4.573-4.934
	c-0.216-2.863-1.967-3.799-4.562-3.81c-5.215-0.021-10.431-0.075-15.646-0.122c-0.088-0.001-0.175-0.081-0.46-0.222
	c0-2.309,0-4.721,0-7.638c3.07,0,6.198,0.001,9.326,0c2.457,0,4.914,0.049,7.368-0.018c2.768-0.074,3.956-1.418,3.979-4.281
	c0.023-2.673-1.133-4.384-3.93-4.426c-5.31-0.078-10.621-0.022-15.956-0.022c1.526-13.495,15.343-24.576,30.321-24.53
	c14.491,0.043,28.25,11.306,29.706,24.518c-5.026,0-10.03-0.025-15.034,0.009c-3.496,0.023-4.859,1.311-4.856,4.444
	c0.002,3.159,1.267,4.291,4.889,4.303c5.196,0.017,10.394,0.004,15.783,0.004c0,2.689,0,5.093,0,7.985c-3.203,0-6.428-0.001-9.653,0
	c-2.252,0-4.506-0.067-6.754,0.021c-3.069,0.12-4.258,1.402-4.265,4.39c-0.006,3.039,1.12,4.265,4.261,4.32
	c4.297,0.076,8.596,0.022,12.894,0.024c1.106,0,2.214,0,3.517,0c0,2.703,0,5.109,0,8.063c-2.455,0-4.957,0-7.459,0
	c-2.865,0-5.73-0.036-8.596,0.013c-3.416,0.058-4.605,1.196-4.616,4.286c-0.011,3.083,1.25,4.396,4.538,4.438
	c5.102,0.065,10.205,0.018,15.33,0.018c-1.295,13.012-15.29,24.523-29.66,24.643c-14.695,0.123-28.792-11.207-30.344-24.643
	c5.129,0,10.231,0.045,15.332-0.017c3.187-0.038,4.443-1.254,4.548-4.119c0.116-3.175-1.084-4.538-4.3-4.595
	c-4.297-0.075-8.595-0.021-12.893-0.023c-1.108,0-2.215,0-3.494,0C77.446,100.877,77.446,98.466,77.446,95.543z"/>
<path fill="#95DACF" d="M113.507,155.604c0,1.126,0,2.121,0,3.61c2.073,0,4.169-0.001,6.266,0c6.773,0.003,9.773,3.151,9.572,10.218
	c-13.979,0-27.963,0-41.944,0c-0.94-6.096,2.459-10.197,8.444-10.217c2.334-0.007,4.667-0.001,7.146-0.001c0-1.363,0-2.431,0-3.678
	c-8.402-1.001-16.273-3.28-23.371-7.839c-11.833-7.603-18.279-18.662-20.756-32.266c-0.347-1.904-0.613-3.845-0.676-5.775
	c-0.113-3.506,2.153-6.066,5.355-6.286c3.072-0.212,5.621,2.226,6.295,5.529c0.935,4.581,1.613,9.32,3.343,13.613
	c4.86,12.071,14.529,18.395,26.97,20.637c10.385,1.872,20.406,0.459,29.601-4.956c10.777-6.349,15.425-16.468,16.896-28.402
	c0.509-4.118,2.987-6.68,6.353-6.42c3.502,0.271,5.664,3,5.278,7.234c-2.24,24.563-17.904,40.141-39.873,44.203
	C116.816,155.103,115.214,155.328,113.507,155.604z"/>
</svg>
