<?xml version="1.0" encoding="utf-8"?>
<!-- Generator: Adobe Illustrator 16.0.3, SVG Export Plug-In . SVG Version: 6.00 Build 0)  -->
<!DOCTYPE svg PUBLIC "-//W3C//DTD SVG 1.1//EN" "http://www.w3.org/Graphics/SVG/1.1/DTD/svg11.dtd">
<svg version="1.1" id="Layer_1" xmlns="http://www.w3.org/2000/svg" xmlns:xlink="http://www.w3.org/1999/xlink" x="0px" y="0px"
	 width="215px" height="215px" viewBox="0 0 215 215" enable-background="new 0 0 215 215" xml:space="preserve">
<path fill="#95DACF" d="M107.5,215C48.225,215,0,166.775,0,107.501C0,48.225,48.225,0,107.5,0C166.775,0,215,48.225,215,107.501
	C215,166.775,166.775,215,107.5,215z M107.5,20.327c-48.067,0-87.174,39.106-87.174,87.174c0,48.067,39.106,87.173,87.174,87.173
	c48.068,0,87.173-39.105,87.173-87.173C194.673,59.433,155.568,20.327,107.5,20.327z M166.314,126.451
	c-1.072-12.692-7.389-19.98-20.02-20.774c-15.59-0.981-23.766-9.811-29.184-22.965c-2.191-5.32-4.461-10.616-6.904-15.826
	c-5.326-11.354-13.749-17.807-26.846-18.438c-16.35-0.787-28.99,10.311-29.019,26.646c-0.045,24.316-0.019,48.634-0.007,72.951
	c0.004,6.88,1.632,8.532,8.409,8.539c15.597,0.017,31.195,0.006,46.792,0.005c15.72,0,31.44,0.016,47.159-0.008
	c6.494-0.01,9.257-2.164,9.601-8.499C166.688,140.887,166.918,133.613,166.314,126.451z M159.15,134.625c0,5.282,0,10.479,0,15.857
	c-0.001,0-0.001,0-0.002,0c-33.247,0-66.421,0-99.818,0c-0.001,0-0.002,0-0.003,0c0-7.061,0-14,0-21.153c0.001,0,0.002,0,0.003,0
	c1.814,0,3.462,0,5.456,0c0.001,0,0.002,0,0.003,0c0,5.194,0,10.302,0,15.659c2.219,0,4.1,0,6.391,0c0-5.223,0-10.317,0-15.688
	c1.688-0.074,2.981-0.132,4.836-0.214l0,0c0.001,0,0.002,0,0.003,0c0,5.368,0,10.562,0,15.942c2.336,0,4.125,0,6.384,0
	c0-5.205,0-10.409,0-15.758c0.001,0,0.002,0,0.003,0c1.884,0,3.307,0,5.092,0c0.001,0,0.002,0,0.003,0c0,5.209,0,10.316,0,15.695
	c2.224,0,4.091,0,6.391,0c0-5.23,0-10.33,0-15.635c0.001,0,0.002,0,0.003,0c1.728,0,3.031,0,4.717,0c0.001,0,0.002,0,0.003,0
	c0,5.027,0,10.129,0,15.568c2.256,0,4.14,0,6.522,0c0-5.031,0-10.232,0-15.602c0.001,0,0.002,0,0.003,0c1.896,0,3.3,0,5.122,0
	c0.001,0,0.003,0,0.004,0c0,5.27,0,10.373,0,15.705c2.185,0,3.954,0,6.142,0c0-5.164,0-10.257,0-15.693
	c1.803-0.084,3.214-0.146,5.106-0.233l0,0c0.001,0,0.001,0,0.002,0c0,5.358,0,10.562,0,15.925c2.354,0,4.234,0,6.517,0
	c0-5.328,0-10.423,0-15.695c0.001,0,0.002,0,0.003,0c1.692,0,2.985,0,4.718,0c0.001,0,0.002,0,0.003,0c0,5.141,0,10.229,0,15.623
	c2.295,0,4.162,0,6.381,0c0-5.111,0-10.216,0-15.564c0.001,0,0.001,0,0.002,0c1.835,0,3.337,0,5.2,0c0.001,0,0.002,0,0.003,0
	c0,5.193,0,10.3,0,15.639c2.126,0,3.907,0,6.26,0c0-5.158,0-10.342,0-15.699c0.001,0,0.003,0,0.004,0c3.088,0,5.616,0,8.545,0
	C159.15,131.094,159.15,132.864,159.15,134.625z"/>
</svg>
