<?xml version="1.0" encoding="utf-8"?>
<!-- Generator: Adobe Illustrator 16.0.3, SVG Export Plug-In . SVG Version: 6.00 Build 0)  -->
<!DOCTYPE svg PUBLIC "-//W3C//DTD SVG 1.1//EN" "http://www.w3.org/Graphics/SVG/1.1/DTD/svg11.dtd">
<svg version="1.1" id="Layer_1" xmlns="http://www.w3.org/2000/svg" xmlns:xlink="http://www.w3.org/1999/xlink" x="0px" y="0px"
	 width="215px" height="215px" viewBox="0 0 215 215" enable-background="new 0 0 215 215" xml:space="preserve">
<path fill="#95DACF" d="M107.5,0C48.224,0,0,48.226,0,107.501C0,166.775,48.224,215,107.5,215c59.275,0,107.5-48.225,107.5-107.499
	C215,48.226,166.775,0,107.5,0z M107.5,194.674c-48.067,0-87.173-39.105-87.173-87.173c0-48.069,39.106-87.175,87.173-87.175
	c48.066,0,87.174,39.107,87.174,87.175C194.674,155.568,155.566,194.674,107.5,194.674z M153.008,48.336c3.549,0,7.096,0,10.645,0
	c0,3.549,0,7.097,0,10.644c-1.077-1.366-2.088-2.793-3.25-4.083c-1.318-1.464-2.723-2.861-4.186-4.183
	C155.232,49.826,154.083,49.122,153.008,48.336z M156.217,50.715c-0.982-0.888-2.133-1.592-3.209-2.378c-0.742,0-1.484,0-2.229,0
	c-1.482,1.065-2.967,2.131-4.51,3.239c-2.092-1.455-3.224-1.649-4.256-0.508c-0.365,0.402-0.775,1.064-0.686,1.511
	c0.206,1.029,0.706,1.997,1.145,3.141c0.002-0.003-0.149,0.191-0.328,0.355c-0.201,0.187-0.43,0.347-0.633,0.508
	c-1.957-1.557-3.183-1.756-4.305-0.733c-1.15,1.049-1.021,2.133,0.582,4.594c-1.318,1.184-2.37,2.568-2.143,4.469
	c0.097,0.807-0.158,1.296-0.695,1.83c-6.549,6.52-13.077,13.06-19.612,19.592c-0.261,0.261-0.534,0.506-0.784,0.741
	c-1.914-1.371-3.728-2.804-5.67-4.034c-4.515-2.861-9.35-4.797-14.829-3.995c-5.285,0.773-9.63,3.203-12.181,8.071
	c-1.236,2.358-2.118,4.907-3.081,7.4c-1.349,3.491-3.724,5.771-7.439,6.537c-2.54,0.523-5.086,1.024-7.632,1.521
	c-8.347,1.633-15.572,5.267-21.117,11.873c-4.207,5.011-5.879,10.812-5.055,17.268c0.729,5.717,3.168,10.789,6.35,15.527
	c4.151,6.182,9.382,11.383,14.934,16.271c4.929,4.34,10.364,7.879,16.696,9.855c7.217,2.249,14.123,1.709,20.39-2.766
	c5.449-3.893,9.399-9.078,11.476-15.428c1.427-4.363,2.337-8.912,3.225-13.428c0.858-4.364,3.097-7.348,7.366-8.762
	c1.798-0.594,3.578-1.246,5.328-1.969c6.797-2.803,10.863-10.318,9.707-17.567c-0.729-4.558-2.672-8.537-5.297-12.239
	c-0.902-1.272-1.904-2.472-3-3.882c0.379-0.295,0.772-0.541,1.092-0.859c6.279-6.264,12.557-12.53,18.811-18.819
	c0.834-0.839,1.569-1.454,2.938-1.374c0.951,0.055,1.974-0.631,2.914-1.086c0.451-0.218,0.787-0.673,1.162-1.009
	c1.948,1.577,3.229,1.823,4.301,0.758c0.382-0.378,0.814-1.027,0.742-1.473c-0.176-1.067-0.639-2.087-1.028-3.256
	c0.14-0.182,0.454-0.597,0.755-0.991c2.107,1.727,3.245,1.914,4.429,0.852c1.199-1.074,1.06-2.219-0.429-4.356
	c1.109-1.543,2.174-3.027,3.24-4.51c0-0.742,0-1.485,0-2.227c-1.077-1.366-2.088-2.793-3.25-4.083
	C159.084,53.434,157.68,52.036,156.217,50.715z M126.309,115.311c0.188,4.744-2.093,8.105-6.515,9.834
	c-2.753,1.073-5.542,2.116-8.153,3.481c-3.611,1.89-5.872,5.035-6.862,8.961c-1.025,4.067-1.762,8.208-2.764,12.282
	c-1.238,5.031-3.77,9.367-7.43,13.045c-5.024,5.048-10.937,5.997-17.525,3.814c-5.835-1.933-10.704-5.439-15.154-9.547
	c-4.213-3.888-8.29-7.926-11.609-12.643c-2.504-3.557-4.559-7.324-5.592-11.609c-1.511-6.271,0.193-11.504,4.789-15.949
	c4.784-4.627,10.623-6.897,17.046-8.035c2.793-0.494,5.586-1.073,8.306-1.864c5.501-1.601,8.601-5.668,10.558-10.793
	c0.513-1.347,1.014-2.697,1.492-4.055c1.897-5.391,7.308-7.413,11.947-6.265c4.089,1.013,7.516,3.254,10.929,6.136
	c-0.818,0.744-1.545,1.354-2.213,2.024c-4.499,4.483-8.975,8.989-13.496,13.45c-0.385,0.379-1.045,0.673-1.579,0.677
	c-5.051,0.031-9.568,3.115-11.058,7.629c-1.696,5.142-0.137,10.136,4.15,13.288c6.809,5.006,16.904,0.627,17.956-7.794
	c0.086-0.692,0.069-1.399,0.173-2.089c0.057-0.378,0.168-0.829,0.42-1.084c5.056-5.092,10.135-10.161,15.211-15.233
	c0.173-0.173,0.358-0.336,0.733-0.688c1.23,1.747,2.51,3.387,3.596,5.147C125.148,109.835,126.193,112.43,126.309,115.311z
	 M143.268,65.899c-0.388,0.381-0.894,0.64-1.131,0.805c-1.416-0.014-2.092-1.131-1.559-2.093c0.175-0.317,0.439-0.593,0.699-0.853
	c2.934-2.942,5.873-5.875,8.813-8.81c0.146-0.146,0.293-0.289,0.449-0.423c0.705-0.6,1.444-0.631,2.086,0.037
	c0.604,0.631,0.546,1.367-0.028,1.997c-0.693,0.759-1.437,1.47-2.164,2.197C148.049,61.142,145.671,63.534,143.268,65.899z
	 M157.309,61.621c-3.137,3.147-6.26,6.308-9.453,9.394c-0.377,0.364-1.189,0.479-1.744,0.383c-0.379-0.066-0.661-0.697-1.053-1.151
	c0.336-0.548,0.515-1.019,0.838-1.347c3.097-3.129,6.215-6.235,9.33-9.342c0.666-0.665,1.442-0.905,2.182-0.209
	C158.188,60.083,158.02,60.907,157.309,61.621z M83.5,146.572c0.995,1.017,0.992,1.726,0,2.753c-0.83,0.86-1.665,1.719-2.539,2.532
	c-0.343,0.319-0.799,0.52-1.282,0.822c-0.475-0.305-0.939-0.5-1.27-0.828c-6.103-6.082-12.195-12.174-18.275-18.276
	c-0.938-0.94-0.925-1.597-0.013-2.558c0.793-0.838,1.621-1.645,2.444-2.453c1.125-1.105,1.813-1.116,2.924-0.008
	c4.727,4.717,9.446,9.442,14.167,14.164C80.938,144.003,82.23,145.277,83.5,146.572z"/>
</svg>
