<?xml version="1.0" encoding="utf-8"?>
<!-- Generator: Adobe Illustrator 16.2.1, SVG Export Plug-In . SVG Version: 6.00 Build 0)  -->
<!DOCTYPE svg PUBLIC "-//W3C//DTD SVG 1.1//EN" "http://www.w3.org/Graphics/SVG/1.1/DTD/svg11.dtd">
<svg version="1.1" id="Layer_1" xmlns="http://www.w3.org/2000/svg" xmlns:xlink="http://www.w3.org/1999/xlink" x="0px" y="0px"
	 width="215px" height="215px" viewBox="0 0 215 215" enable-background="new 0 0 215 215" xml:space="preserve">
<g>
	<path fill="#95DACF" d="M158.286,121.228c-1.922-2.194-3.207-4.954-5.133-7.137c-0.783-0.881-2.684-1.558-3.774-1.26
		c-8.011,2.231-12.278,0.604-15.609-6.278c-1.273-2.632-1.905-4.751,1.452-6.715c1.158-0.679,1.734-3.796,1.286-5.451
		c-0.662-2.423-2.346-4.628-3.847-6.741c-2.771-3.918-5.025-8.696-8.753-11.328c-6.475-4.569-14.198-3.551-21.679-1.922
		c-1.596,0.347-4.226,0.46-4.946-0.453c-3.134-3.966-5.74-8.35-8.185-12.043c2.27-1.384,3.938-2.328,5.456-3.477
		c0.096-0.074-0.963-1.681-1.486-2.578c-1.671,1.084-3.345,2.162-5.579,3.603c-0.953-1.457-1.988-3.047-2.901-4.445
		c2.536-1.325,4.402-2.296,6.268-3.268c-0.524-0.907-1.421-2.637-1.51-2.594c-1.813,0.827-3.53,1.857-6.615,3.608
		c-0.387-1.537-1.281-3.331-1.193-5.077c0.202-4.045-1.402-7.767-5.165-7.479c-3.397,0.263-7.624,2.633-9.58,5.413
		c-2.244,3.193,0.618,6.075,3.858,8.271c2.287,1.542,3.726,4.345,5.224,6.187l0.901,2.737c3.174,6.241,6.5,12.791,9.702,19.091
		c-2.881,3.608-5.801,6.684-8.054,10.189c-6.715,10.454-5.387,19.731,3.485,27.706c0.976,0.877,1.938,2.408,1.928,3.631
		c-0.027,4.468,2.509,3.854,5.396,3.213c1.529-0.342,3.558-0.993,4.652-0.331c5.916,3.576,6.184,13.822,0.58,18.102
		c-2.493,1.9-3.22,3.562-0.601,5.958c0.899,0.823,1.583,2.222,1.757,3.444c2.81,19.682,29.785,24.069,44.173,14.044
		c-5.941-7.02-11.771-13.938-17.63-20.83c-2.728-3.209-6.528-6.304-0.686-9.399c-14.835-26.681-29.48-52.935-43.949-79.279
		c-0.858-1.559-2.106-4.901-0.384-5.877c1.719-0.978,3.868,1.825,4.841,3.352c6.793,10.629,13.477,21.331,19.903,32.185
		c8.958,15.129,17.662,30.407,26.789,46.171c4.889-4.084,6.165-0.336,7.371,3.145c0.875,2.524,2.08,4.441,3.104,6.892
		c2.744,6.544,4.484,12.145,8.131,20.274c4.95-6.049,9.45-8.408,12.342-13.228C165.988,140.648,165.087,128.99,158.286,121.228z
		 M104.348,146.227c1.898-3.396,3.26-3.054,5.859-0.741c-1.426-3.283-3.524-6.865-4.496-10.736
		c-0.806-3.201-1.716-7.132-0.138-10.099c1.094-2.062,2.887-1.719,4.5-1.18c0.48-0.032,1.623,1.841,1.506,1.975
		c-0.086,3.037-1.708,3.295-3.809,3.235c1.818,4.083,3.765,8.205,5.499,12.41c1.664,4.042,0.262,7.292-3.577,8.953
		c-1.358,0.587-3.792,0.816-5.116-0.908c-0.066-0.026-0.12-0.133-0.169-0.267C103.51,147.461,104.251,146.397,104.348,146.227z
		 M144.152,131.338c-3.55,2.222-7.017,1.533-9.403-2.13c-2.479-3.816-4.767-7.756-7.097-11.572
		c-1.146,1.767-2.277,2.951-4.831,1.302c-0.15-0.095-0.899-1.9-0.761-2.359c0.464-1.633,1.204-3.305,3.517-3.037
		c3.335,0.384,6.06,3.363,8.238,5.846c2.631,2.989,4.395,6.758,6.291,9.79c-0.427-3.448,0.067-4.768,3.931-4.399
		c0.212,0.017,1.675-0.016,2.27,1.837C146.979,128.686,145.407,130.554,144.152,131.338z"/>
	<g>
		<path fill="#95DACF" d="M107.5,215C48.224,215,0,166.775,0,107.501C0,48.226,48.224,0,107.5,0C166.775,0,215,48.226,215,107.501
			C215,166.775,166.775,215,107.5,215z M107.5,20.326c-48.067,0-87.173,39.106-87.173,87.175c0,48.067,39.106,87.173,87.173,87.173
			s87.174-39.105,87.174-87.173C194.674,59.433,155.567,20.326,107.5,20.326z"/>
	</g>
</g>
</svg>
