<?xml version="1.0" encoding="utf-8"?>
<!-- Generator: Adobe Illustrator 16.0.3, SVG Export Plug-In . SVG Version: 6.00 Build 0)  -->
<!DOCTYPE svg PUBLIC "-//W3C//DTD SVG 1.1//EN" "http://www.w3.org/Graphics/SVG/1.1/DTD/svg11.dtd">
<svg version="1.1" id="Layer_1" xmlns="http://www.w3.org/2000/svg" xmlns:xlink="http://www.w3.org/1999/xlink" x="0px" y="0px"
	 width="258.944px" height="136.386px" viewBox="176.987 328.09 258.944 136.386"
	 enable-background="new 176.987 328.09 258.944 136.386" xml:space="preserve">
<path fill="#231F20" d="M338.874,378.015c0.34,0.059,0.702,0.116,1.086,0.176c-0.199,0.215-0.399,0.424-0.599,0.643
	C339.216,378.545,339.043,378.282,338.874,378.015z M283.335,410.479L283.335,410.479c0.006-0.014,0.011-0.025,0.017-0.038
	C283.346,410.453,283.341,410.465,283.335,410.479z M369.941,408.722L369.941,408.722c0.004-0.087,0.004-0.168,0.009-0.256
	C369.945,408.554,369.945,408.635,369.941,408.722z M321.361,403.864c0.046-0.077,0.092-0.154,0.139-0.231
	C321.453,403.71,321.407,403.787,321.361,403.864z M370.055,407.296c-0.039,0.391-0.08,0.781-0.104,1.17
	C369.975,408.077,370.016,407.688,370.055,407.296L370.055,407.296z M349.137,379.102c-0.389,0.362-0.773,0.732-1.158,1.106
	C348.361,379.834,348.748,379.464,349.137,379.102z M387.925,375.68c-0.599,0.594-1.208,1.221-1.825,1.873
	C386.717,376.899,387.326,376.273,387.925,375.68z M373.797,379.434c0.456-0.05,0.924-0.109,1.387-0.166
	c0.396-0.504,0.793-1.008,1.209-1.512c-0.871,0.116-1.726,0.225-2.567,0.324C373.83,378.52,373.82,378.971,373.797,379.434z
	 M366.557,380.077c0.035-0.302,0.08-0.606,0.098-0.905C366.636,379.471,366.592,379.775,366.557,380.077L366.557,380.077z
	 M366.654,379.172c0.008-0.132,0.006-0.251,0.01-0.378l0,0C366.66,378.921,366.662,379.04,366.654,379.172z M320.177,405.91
	c0.08-0.144,0.158-0.284,0.239-0.428C320.335,405.626,320.257,405.768,320.177,405.91z M222.715,394.242
	c-0.131,0.41-0.261,0.818-0.391,1.229l0,0C222.454,395.063,222.584,394.652,222.715,394.242z M239.223,380.55
	c0.304-0.484,0.609-0.973,0.912-1.454c-1.515-0.005-3.054,0.015-4.618,0.067c-0.197,0.527-0.394,1.055-0.589,1.582
	C236.313,380.661,237.746,380.596,239.223,380.55z M221.625,424.115c0.333-0.588,0.668-1.182,1.001-1.766l0,0
	C222.294,422.935,221.959,423.527,221.625,424.115L221.625,424.115z M269.622,389.449c0.255-0.244,0.517-0.472,0.774-0.707
	C270.138,388.978,269.877,389.206,269.622,389.449L269.622,389.449z M319.08,407.943c0.104-0.199,0.202-0.397,0.309-0.599
	C319.282,407.547,319.184,407.743,319.08,407.943z M241.65,407.49L241.65,407.49c0.165-0.276,0.329-0.549,0.493-0.823
	C241.979,406.94,241.814,407.214,241.65,407.49z M256.259,407.63c0.268-0.504,0.543-0.992,0.816-1.482l0,0
	C256.802,406.639,256.526,407.127,256.259,407.63L256.259,407.63z M296.195,405.116c0.421-0.791,0.83-1.552,1.232-2.297l0,0
	C297.025,403.564,296.617,404.325,296.195,405.116c-0.407,0.76-0.801,1.49-1.189,2.21
	C295.394,406.606,295.789,405.873,296.195,405.116z M250.959,420.318c0.099-0.341,0.191-0.677,0.299-1.021l0,0
	C251.151,419.643,251.057,419.979,250.959,420.318z M322.598,401.854c0.006-0.008,0.012-0.016,0.016-0.023l0,0
	C322.607,401.837,322.604,401.846,322.598,401.854z M380.023,407.322c-0.008-0.027-0.017-0.058-0.024-0.084
	C380.008,407.266,380.016,407.295,380.023,407.322z M380.334,407.95c-0.006-0.01-0.016-0.018-0.021-0.026
	C380.318,407.934,380.328,407.94,380.334,407.95L380.334,407.95z M385.143,391.779L385.143,391.779
	c-0.016,0.026-0.031,0.056-0.047,0.084C385.111,391.835,385.127,391.806,385.143,391.779z M384.17,393.494L384.17,393.494
	c0.001-0.001,0.001-0.002,0.002-0.003C384.171,393.492,384.171,393.493,384.17,393.494z M310.414,406.112
	c0.331-0.357,0.665-0.705,1.004-1.041C311.079,405.407,310.745,405.755,310.414,406.112z M338.529,408.626L338.529,408.626
	c0.002-0.003,0.002-0.005,0.003-0.008C338.531,408.621,338.529,408.623,338.529,408.626z M364.063,421.62
	c-1.084-0.02-2.138-0.054-3.164-0.101c-0.467,0.488-0.931,0.965-1.394,1.426c2.672,0.14,5.631,0.201,8.856,0.148
	c-0.521-0.448-1.018-0.936-1.487-1.456C365.947,421.642,365.012,421.637,364.063,421.62z M309.264,409.506L309.264,409.506
	c0.318-0.707,0.649-1.42,0.998-2.14C309.908,408.088,309.581,408.799,309.264,409.506z M242.717,419.751
	c-0.284,0.485-0.568,0.973-0.854,1.461c0.5-0.039,0.998-0.062,1.497-0.096c0.11-0.479,0.209-0.951,0.336-1.436
	C243.371,419.704,243.046,419.727,242.717,419.751z M409.08,400.392c0.264-0.305,0.509-0.594,0.749-0.879
	C409.588,399.798,409.341,400.089,409.08,400.392z M359.809,393.947L359.809,393.947c-0.25,0.29-0.498,0.557-0.742,0.811
	C359.311,394.505,359.559,394.237,359.809,393.947z M358.295,395.514c0.24-0.22,0.484-0.457,0.73-0.713
	C358.779,395.056,358.535,395.294,358.295,395.514L358.295,395.514z M339.313,406.806c-0.028,0.063-0.052,0.12-0.078,0.184
	C339.264,406.926,339.284,406.869,339.313,406.806z M337.617,392.652c-0.148,0.216-0.299,0.428-0.444,0.646l0,0
	C337.318,393.08,337.471,392.869,337.617,392.652z M340.568,418.279c0,0-0.002,0.001-0.004,0.001l0,0
	C340.566,418.28,340.568,418.279,340.568,418.279z M347.005,393.55L347.005,393.55c-0.392,0.557-0.784,1.129-1.178,1.72l0,0
	C346.221,394.679,346.613,394.105,347.005,393.55z M351.697,395.051c0.012,0.16,0.031,0.307,0.057,0.446l0,0
	C351.729,395.357,351.712,395.207,351.697,395.051z M351.752,393.757c-0.027,0.186-0.057,0.369-0.068,0.564
	C351.695,394.126,351.725,393.942,351.752,393.757L351.752,393.757z M363.488,407.37c-0.348,0.462-0.721,0.948-1.118,1.457
	c0,0,0,0,0.001,0C362.768,408.318,363.141,407.832,363.488,407.37L363.488,407.37z M374.488,393.289
	c-0.245,0.469-0.487,0.938-0.713,1.405l0,0C374.002,394.227,374.243,393.757,374.488,393.289z M388.011,392.375
	c0.335-0.261,0.656-0.521,0.952-0.783C388.667,391.853,388.34,392.114,388.011,392.375z M275.831,437.051L275.831,437.051
	c-0.368-0.231-0.707-0.485-1.029-0.749C275.123,436.565,275.464,436.818,275.831,437.051z M308.497,408.351
	c0.004-0.005,0.007-0.009,0.011-0.013C308.504,408.342,308.501,408.346,308.497,408.351z M331.382,403.297
	c0.312-0.643,0.64-1.295,0.985-1.956C332.021,402.002,331.693,402.653,331.382,403.297z M273.796,435.356
	c0.268,0.295,0.565,0.577,0.888,0.85C274.363,435.935,274.063,435.651,273.796,435.356z M331.361,403.341
	c-0.938,1.938-1.713,3.796-2.328,5.571l0,0C329.648,407.137,330.426,405.279,331.361,403.341z M309.654,406.969
	c-0.07,0.08-0.141,0.155-0.211,0.236C309.514,407.124,309.584,407.049,309.654,406.969z M264.795,434.52
	c-0.411,0.4-0.82,0.771-1.228,1.112C263.975,435.291,264.384,434.92,264.795,434.52L264.795,434.52z M211.518,397.916
	c-0.015,0.051-0.028,0.1-0.042,0.151l0,0C211.49,398.017,211.503,397.968,211.518,397.916z M224.151,437.765
	c-0.01,0.02-0.021,0.037-0.031,0.057C224.131,437.802,224.141,437.783,224.151,437.765L224.151,437.765z M250.621,434.974
	c0.129,0.237,0.269,0.456,0.411,0.67l0,0C250.89,435.43,250.75,435.211,250.621,434.974z M342.42,426.647
	c-0.229,0.092-0.456,0.182-0.684,0.265C341.964,426.829,342.191,426.741,342.42,426.647z M407.664,369.427
	c0.123,0.222,0.227,0.454,0.313,0.696C407.891,369.881,407.787,369.648,407.664,369.427L407.664,369.427z M194.86,447.905
	c-3.779,1.728-6.583,3.244-7.8,4.211l-1.204-14.293c3.715-2.047,7.055-3.757,10.14-5.215c0.098-0.61,0.198-1.229,0.307-1.861
	c-5.179,2.161-9.076,4.15-10.578,5.344l-0.936-12.483c5.339-2.941,10.085-5.13,14.408-6.85c0.122-0.521,0.25-1.053,0.377-1.583
	c-6.774,2.608-12.235,5.217-14.821,6.834l-1.061-12.658c7.59-4.182,13.996-6.854,19.662-8.795c0.149-0.543,0.301-1.092,0.454-1.643
	c-9.663,3.317-17.746,6.997-20.269,8.647l-0.729-10.563c2.216-2.052,11.938-7.647,24.978-11.634c0.191-0.614,0.377-1.239,0.571-1.85
	c-12.761,3.777-22.554,9.467-31.372,15.54l4.969,57.595c2.294-1.32,6.882-3.943,13.06-6.881
	C194.948,449.175,194.899,448.548,194.86,447.905z M430.961,358.086c-2.726,1.568-8.687,4.973-16.705,8.559
	c0.242,0.513,0.455,1.039,0.626,1.587c5.373-2.295,9.438-4.393,10.977-5.613l1.202,14.293c-3.674,2.023-6.981,3.721-10.038,5.169
	c0.547,0.302,1.066,0.659,1.556,1.068c4.191-1.829,7.311-3.469,8.616-4.506l0.936,12.484c-2.337,1.288-4.553,2.422-6.679,3.446
	c-0.228,0.641-0.516,1.303-0.859,1.987c3.354-1.495,5.997-2.85,7.573-3.834l1.062,12.656c-10.557,5.816-18.826,8.726-25.988,10.778
	c-1.063,0.871-2.138,1.708-3.223,2.504c13.364-3.747,26.077-9.342,29.362-11.491l0.729,10.562
	c-2.613,2.42-15.668,9.771-32.293,13.598c-4.224,0.971-15.781,3.105-30.351,2.914c-6.118-0.08-14.425-1.496-19.327-2.44
	c-0.763,0.416-1.52,0.787-2.273,1.124c6.939,1.392,23.556,4.048,41.025,1.922c22.124-2.69,36.54-10.561,49.042-19.172
	L430.961,358.086z M407.992,370.162c0.086,0.242,0.155,0.494,0.207,0.756l0,0C408.148,370.656,408.078,370.404,407.992,370.162z
	 M242.956,434.922c-3.056,0.266-6.265,0.628-9.621,1.118c-0.291,0.512-0.581,1.024-0.872,1.539c0.566-0.093,1.131-0.189,1.702-0.273
	c3.242-0.477,6.306-0.841,9.197-1.114C243.212,435.774,243.076,435.352,242.956,434.922z M343.41,426.221
	c-0.119,0.058-0.237,0.104-0.355,0.156C343.174,426.324,343.291,426.277,343.41,426.221z M201.94,444.904
	c-0.009,0.604-0.003,1.186,0.014,1.745C201.937,446.09,201.932,445.509,201.94,444.904z M399.412,390.056L399.412,390.056
	c0.477-0.57,0.938-1.153,1.391-1.747C400.35,388.901,399.889,389.484,399.412,390.056z M349.904,422.038L349.904,422.038
	c0.505-0.405,1.012-0.829,1.522-1.277C350.916,421.209,350.408,421.633,349.904,422.038z M408.533,401.015
	c-0.137,0.154-0.26,0.3-0.401,0.458c-0.001,0-0.001,0-0.001,0C408.272,401.314,408.398,401.168,408.533,401.015z M267.025,421.23
	c-0.003,0.005-0.007,0.01-0.01,0.015l0,0C267.019,421.24,267.021,421.235,267.025,421.23z M267.542,420.47
	c0.05-0.075,0.103-0.155,0.153-0.232C267.644,420.313,267.592,420.394,267.542,420.47z M247.681,380.551
	c0.207-0.325,0.412-0.646,0.618-0.969C248.093,379.905,247.888,380.226,247.681,380.551z M284.209,408.396
	c0.008-0.02,0.016-0.038,0.024-0.058C284.225,408.358,284.217,408.378,284.209,408.396z M264.939,394.496L264.939,394.496
	c0.371-0.448,0.749-0.879,1.126-1.312l0,0C265.688,393.617,265.31,394.048,264.939,394.496z M218.201,409.328
	c0.006-0.022,0.013-0.046,0.019-0.068l0,0C218.213,409.283,218.207,409.306,218.201,409.328z M239.859,393.12
	c0.271-0.444,0.543-0.89,0.813-1.331C240.402,392.23,240.13,392.677,239.859,393.12z M265.901,383.147
	c0.333-0.305,0.664-0.612,1.002-0.903c0.154-0.132,0.309-0.248,0.463-0.377c-0.39-0.08-0.815-0.163-1.271-0.25
	c-0.298,0.461-0.598,0.928-0.898,1.393C265.442,383.057,265.677,383.103,265.901,383.147z M203.862,429.209
	c0.092-0.49,0.189-0.988,0.288-1.491l0,0C204.051,428.222,203.955,428.72,203.862,429.209L203.862,429.209z M258.298,380.514
	c0.031-0.048,0.063-0.097,0.093-0.146l0,0C258.36,380.417,258.329,380.465,258.298,380.514z M251.249,391.694
	c-0.3,0.483-0.602,0.974-0.903,1.461l0,0C250.647,392.667,250.949,392.178,251.249,391.694L251.249,391.694z M230.257,394.162
	c0.218-0.029,0.432-0.064,0.651-0.092c0.332-0.55,0.664-1.102,0.994-1.646c-0.373,0.039-0.735,0.07-1.113,0.113
	C230.609,393.079,230.434,393.62,230.257,394.162z M285.886,404.769c0.057-0.114,0.114-0.229,0.171-0.344
	C286,404.538,285.943,404.653,285.886,404.769z M286.826,402.951c0.003-0.008,0.008-0.017,0.011-0.022l0,0
	C286.833,402.936,286.83,402.943,286.826,402.951z M285.119,406.364c-0.006,0.012-0.011,0.021-0.017,0.034
	C285.108,406.387,285.113,406.376,285.119,406.364z M272.865,411.314c0.001-0.004,0.003-0.008,0.005-0.011
	C272.868,411.308,272.867,411.311,272.865,411.314L272.865,411.314z M215.992,383.205c0.067-0.207,0.136-0.413,0.203-0.62
	C216.127,382.792,216.06,382.998,215.992,383.205L215.992,383.205z M275.346,406.493c0.324-0.646,0.654-1.306,0.991-1.988
	C276,405.188,275.671,405.846,275.346,406.493z M274.842,407.489c-0.135,0.266-0.271,0.534-0.403,0.794
	C274.572,408.022,274.707,407.756,274.842,407.489z M273.778,409.568c-0.057,0.109-0.115,0.221-0.171,0.33
	C273.664,409.789,273.721,409.679,273.778,409.568z M294.894,407.533c-0.16,0.296-0.313,0.577-0.47,0.867
	C294.582,408.109,294.733,407.831,294.894,407.533z M420.193,384.85l-0.238-0.303c-1.676-2.057-3.979-3.324-6.51-3.591
	c1.197-2.85,1.857-5.447,2.007-7.848c0.275-4.508-1.542-8.546-4.993-11.079l-0.235-0.162c-1.891-1.29-4.005-2.024-6.283-2.183
	c-0.954-0.068-1.938-0.031-2.919,0.112c-6.972,1.009-14.146,5.947-22.574,15.529c-1.756,1.988-3.359,3.975-4.823,5.96
	c0.073-0.563,0.137-1.123,0.171-1.683c0.568-9.313-5.275-13.907-11.313-14.33c-1.112-0.078-2.297-0.029-3.514,0.148
	c-4.006,0.577-8.189,2.776-12.852,6.759c-2.332,2.026-4.585,4.249-6.754,6.651c-1.687-3.317-4.924-5.203-8.243-5.436
	c-0.832-0.059-1.698-0.021-2.576,0.106c-2.718,0.393-5.896,1.766-10.799,5.755c-1.687-1.384-3.675-2.187-5.795-2.335
	c-0.716-0.05-1.439-0.022-2.152,0.08c-4.997,0.726-8.387,4.975-10.811,8.646c-0.375,0.573-0.777,1.22-1.194,1.896
	c0.003-3.653-1.466-7.015-4.328-9.612c-2.256-1.972-5.07-3.125-8.142-3.34c-1.136-0.079-2.32-0.032-3.522,0.146
	c-4.91,0.711-9.916,3.23-14.896,7.505c-1.037,0.894-2.047,1.853-3.044,2.842c8.26-12.913,16.054-24.305,23.327-34.059
	c4.049-5.374,5.706-8.73,5.902-11.96c0.155-2.559-0.643-5.078-2.247-7.095l-0.215-0.266c-1.838-2.119-4.365-3.398-7.115-3.59
	c-0.756-0.054-1.529-0.022-2.301,0.088c-4.527,0.659-8.604,3.768-13.202,10.056c-7.963,10.81-15.162,21.143-21.396,30.716
	c-5.53,8.492-11.228,17.624-17.067,27.354c4.041-12.607,8.899-25.405,14.458-38.088l3.331-7.562
	c1.082-2.504,1.677-4.805,1.813-7.033c0.195-3.217-0.996-6.242-3.286-8.37c-1.786-1.729-4.156-2.776-6.717-2.955
	c-0.868-0.063-1.771-0.026-2.681,0.104c-4.027,0.583-7.446,2.775-9.933,6.395c-0.715,1.058-1.829,3.048-5.121,10.348
	c-6.321,13.962-11.969,29.709-16.779,46.8c-5.952,21.069-9.142,36.189-9.752,46.213c-1.128,18.508,7.581,21.892,12.873,22.262
	c1.033,0.071,2.11,0.027,3.194-0.129c2.527-0.366,6.158-1.636,9.157-5.59c0.855-1.086,2.341-3.192,5.421-8.746
	c6.574-11.871,12.944-23.026,19.111-33.496c-1.329,4.065-2.109,7.917-2.333,11.603c-0.235,3.869,0.439,7.318,2.045,10.325
	c2.418,4.41,6.363,7.02,11.112,7.352c1.059,0.074,2.157,0.031,3.27-0.131c3.531-0.511,6.875-2.188,10.125-5.095
	c2.693,2.791,6.054,4.396,9.801,4.658c12.206,0.854,16.888-5.827,20.337-10.051c1.008,1.558,2.153,2.954,2.776,3.365
	c7.4,4.881,15.047,0.74,17.315-1.175c3.704-3.125,3.918-7.619,3.214-10.331c-0.003-0.01-0.001-0.017-0.004-0.026
	c0.312,0.571,0.646,1.136,1.022,1.679c2.771,3.852,6.806,6.065,11.664,6.408c1.393,0.097,2.862,0.034,4.373-0.185
	c7.859-1.143,16.047-6.758,24.985-17.164c0.543,1.214,1.212,2.35,2.042,3.382c2.895,3.496,6.893,5.52,11.553,5.846
	c1.442,0.1,2.967,0.034,4.527-0.188c4.977-0.726,10.077-2.914,15.593-6.696c4.926-3.367,9.664-7.523,14.066-12.334
	c6.956-7.558,9.765-12.17,10.026-16.459C422.283,388.985,421.607,386.764,420.193,384.85z M208.251,457.307
	c-4.708-0.33-6.806-5.27-6.229-14.686c0.57-9.377,3.766-24.417,9.496-44.705c4.715-16.752,10.237-32.158,16.412-45.794
	c2.354-5.225,3.841-8.269,4.537-9.301c1.308-1.904,2.998-3.015,5.026-3.311c0.404-0.061,0.793-0.077,1.153-0.052
	c0.943,0.066,1.725,0.419,2.323,1.045c0.726,0.615,1.106,1.574,1.039,2.705c-0.083,1.368-0.501,2.926-1.24,4.63l-3.309,7.518
	c-6.178,14.092-11.502,28.319-15.823,42.28c-5.611,18.008-8.776,32.406-9.408,42.793l-0.014,0.528
	c14.142-25.728,27.725-48.617,40.395-68.077c6.162-9.461,13.281-19.681,21.162-30.377c3.296-4.506,6.065-6.866,8.469-7.218
	c0.267-0.036,0.525-0.047,0.775-0.03c0.862,0.062,1.604,0.441,2.202,1.134c0.545,0.687,0.785,1.43,0.733,2.245
	c-0.062,1.005-0.592,2.932-4.474,8.09c-17.918,24.029-38.85,57.606-62.208,99.792c-2.18,3.931-3.763,6.498-4.836,7.852
	c-1.224,1.642-2.748,2.614-4.507,2.867C209.336,457.318,208.774,457.342,208.251,457.307z M335.479,427.928
	c-2.703-0.188-4.844-1.351-6.354-3.451c-1.414-2.027-2.033-4.564-1.85-7.555c0.34-5.602,2.963-12.455,7.801-20.375
	c4.643-7.547,9.934-13.925,15.732-18.963c3.557-3.037,6.561-4.7,9.186-5.076c0.713-0.105,1.384-0.138,1.986-0.096
	c2.309,0.162,4.992,1.468,4.674,6.76c-0.246,4.006-1.996,8.277-5.201,12.714c-2.584,3.518-4.781,5.36-6.729,5.644
	c-0.279,0.04-0.545,0.05-0.795,0.03c-0.729-0.051-2.418-0.467-2.246-3.238c0.063-1.076,0.371-1.995,0.922-2.727
	c0.068-0.098,0.285-0.397,2.008-2.169c0.895-0.955,1.869-2.381,2.896-4.227c0.819-1.465,1.021-2.254,1.044-2.66
	c0.01-0.141-0.011-0.195-0.01-0.197c0.016,0.109-0.07,0.105-0.199,0.128c-0.482,0.069-1.719,0.563-4.504,3.072
	c-3.51,3.198-7.184,8.032-10.91,14.355c-3.813,6.547-5.854,11.599-6.059,15.009c-0.063,0.936,0.141,1.688,0.604,2.305
	c0.531,0.74,1.156,1.104,1.994,1.16c0.262,0.019,0.551,0.009,0.854-0.036c2.953-0.428,6.691-2.955,11.115-7.509
	c3.84-3.996,7.154-7.97,9.854-11.799c1.611-2.403,2.959-3.615,4.221-3.801c0.188-0.025,0.373-0.034,0.557-0.022
	c0.646,0.047,1.252,0.353,1.742,0.886c0.563,0.706,0.804,1.423,0.758,2.188c-0.088,1.382-1.016,4.227-8.094,12.933
	c-8.394,10.222-15.639,15.648-22.145,16.591C337.32,427.945,336.361,427.988,335.479,427.928z M378.432,419.807
	c-2.699-0.188-4.9-1.291-6.541-3.271c-1.504-1.871-2.15-4.58-1.939-8.069c0.551-9.055,5.217-18.609,13.859-28.404
	c7.15-8.129,13.116-12.441,18.237-13.187c0.479-0.067,0.946-0.088,1.394-0.057c1,0.069,1.929,0.393,2.755,0.957
	c1.544,1.131,2.249,2.771,2.112,4.891c-0.178,2.968-1.643,6.638-4.471,11.225c-5.585,9.113-13.646,16.139-23.969,20.889
	l-0.051,0.852c-0.059,0.942,0.108,1.714,0.494,2.293c0.678,1.041,1.713,1.595,3.176,1.697c0.57,0.039,1.227,0.009,1.932-0.091
	c6.025-0.876,13.494-6.918,22.189-17.96c1.771-2.195,3.189-3.305,4.474-3.489c0.175-0.022,0.351-0.03,0.521-0.02
	c0.479,0.033,1.182,0.232,1.811,1.007c0.438,0.593,0.629,1.177,0.594,1.772c-0.091,1.461-1.031,4.303-8.147,12.036
	c-4.044,4.419-8.368,8.213-12.843,11.277c-4.533,3.105-8.766,4.965-12.576,5.517C380.378,419.824,379.366,419.871,378.432,419.807z
	 M398.938,377.464c-0.04-0.003-0.112-0.007-0.228,0.013c-0.767,0.111-2.3,0.829-5.276,3.64c-3.906,3.647-7.391,8.518-10.369,14.505
	c2.39-1.326,4.367-2.678,5.898-4.029c3.609-3.268,6.574-6.838,8.798-10.608c0.757-1.239,1.16-2.291,1.213-3.135
	c0.021-0.321-0.034-0.431-0.034-0.431L398.938,377.464z M280.445,392.485c-0.162-0.013-0.334-0.002-0.509,0.023
	c-3.533,0.51-7.73,4.504-12.469,11.873c-5.303,8.264-8.152,15.076-8.467,20.248c-0.083,1.355,0.151,1.989,0.362,2.284
	c0.114,0.159,0.282,0.321,0.694,0.351c0.149,0.012,0.316,0.003,0.5-0.021c1.455-0.212,4.077-1.913,8.295-8.825
	c1.976-3.178,4.494-7.854,7.486-13.912c2.035-4.064,3.464-6.707,4.374-8.072c0.401-0.626,1.042-1.372,1.944-2.265
	c-0.363-0.597-0.752-1.036-1.159-1.311C281.16,392.637,280.816,392.512,280.445,392.485z M273.385,434.874
	c-1.566-2.042-2.363-4.694-2.159-8.026c0.013-0.231,0.035-0.501,0.062-0.802c-1.059,1.701-2.107,3.245-3.131,4.616
	c-3.622,4.813-7.042,7.393-10.46,7.892c-0.605,0.088-1.188,0.112-1.739,0.073c-2.302-0.16-4.099-1.391-5.337-3.653
	c-0.938-1.755-1.333-3.922-1.179-6.452c0.362-5.938,2.577-12.822,6.582-20.465c4.452-8.47,9.683-15.333,15.553-20.393
	c3.921-3.365,7.705-5.33,11.251-5.844c0.696-0.103,1.368-0.134,1.996-0.088c1.523,0.104,2.849,0.643,3.937,1.59
	c1.367,1.245,1.997,2.789,1.886,4.606c-0.073,1.194-0.55,2.784-1.451,4.854c0.605,1.002,0.885,1.978,0.832,2.893
	c-0.081,1.277-0.897,3.235-2.576,6.16c-1.591,2.731-3.258,6.349-4.954,10.753c-1.796,4.634-2.204,6.604-2.602,8.823
	c-0.085,0.488-0.438,2.228-0.127,4.217c0.406,2.629,2.69,4.012,4.336,1.225c0.631-1.063,5.019-8.561,12.09-21.736
	c3.723-6.988,6.676-12.17,8.778-15.399c2.302-3.491,4.159-5.226,5.841-5.47c0.207-0.029,0.42-0.04,0.623-0.025
	c0.727,0.052,1.396,0.371,2.002,0.949c0.867,0.832,1.269,1.88,1.192,3.109c-0.079,1.339-0.952,3.222-2.655,5.756
	c-0.461,0.699-0.903,1.383-1.33,2.055c9.311-9.822,15.514-14.851,18.91-15.343c0.375-0.054,0.729-0.071,1.053-0.049
	c0.902,0.063,2.98,0.578,2.772,4.005c-0.108,1.79-1.153,3.915-3.19,6.51c-10.185,12.9-15.614,23.854-16.146,32.549
	c-0.165,2.697,0.187,4.129,0.313,4.652c0.353,1.431,0.173,3.489-0.625,4.32c-0.813,0.963-1.817,1.559-2.957,1.725
	c-0.389,0.055-0.769,0.071-1.133,0.046c-1.992-0.138-3.632-2.12-4.167-3.162c-0.533-1.028-0.775-2.265-0.541-6.101
	c0.361-5.931,2.539-12.7,6.482-20.172c-5.543,5.493-9.824,13.911-16.177,23.038c-5.495,7.894-6.624,8.42-8.361,9.448
	C281.999,440.447,275.883,438.126,273.385,434.874z M300.934,448.563v9.563h2.879v-4.254c0-0.919,0.098-1.593,0.291-2.021
	c0.193-0.428,0.485-0.76,0.877-0.998c0.391-0.234,0.827-0.354,1.306-0.354c0.43,0,0.796,0.093,1.099,0.281
	c0.306,0.187,0.531,0.473,0.685,0.855c0.149,0.383,0.227,1.003,0.227,1.858v4.632h2.9v-4.315c0-0.912,0.096-1.575,0.285-1.989
	c0.188-0.412,0.479-0.737,0.869-0.973c0.39-0.233,0.83-0.352,1.322-0.352c0.646,0,1.133,0.192,1.455,0.576
	c0.324,0.384,0.486,1.117,0.486,2.201v4.852h2.898v-5.607c0-1.146-0.136-1.977-0.404-2.485c-0.272-0.51-0.719-0.922-1.336-1.239
	c-0.619-0.317-1.338-0.475-2.152-0.475c-0.789,0-1.516,0.146-2.18,0.438c-0.666,0.293-1.229,0.72-1.686,1.283
	c-0.352-0.563-0.816-0.99-1.395-1.283s-1.225-0.438-1.941-0.438c-0.711,0-1.367,0.109-1.968,0.334
	c-0.602,0.223-1.149,0.56-1.642,1.011v-1.1h-2.879h0.003V448.563z M321.244,448.563v3.981c0,1.529,0.113,2.584,0.338,3.164
	c0.316,0.838,0.863,1.491,1.641,1.96s1.795,0.703,3.055,0.703c1.158,0,2.115-0.202,2.867-0.604c0.752-0.4,1.322-0.978,1.709-1.728
	c0.317-0.615,0.477-1.758,0.477-3.428v-4.054h-2.88v4.687c0,0.903-0.062,1.492-0.181,1.767c-0.162,0.369-0.41,0.65-0.744,0.84
	c-0.338,0.19-0.742,0.285-1.223,0.285c-0.479,0-0.884-0.097-1.211-0.29c-0.328-0.191-0.566-0.463-0.715-0.813
	c-0.148-0.349-0.221-0.972-0.221-1.867v-4.605L321.244,448.563L321.244,448.563z M339.57,448.724
	c-0.658-0.271-1.359-0.406-2.104-0.406c-1.091,0-1.985,0.268-2.685,0.805c-0.699,0.536-1.049,1.182-1.049,1.938
	c0,1.173,0.928,2.148,2.783,2.929l0.971,0.402c0.837,0.354,1.256,0.712,1.256,1.081c0,0.199-0.117,0.375-0.35,0.527
	c-0.23,0.153-0.537,0.229-0.916,0.229c-0.354,0-0.756-0.102-1.209-0.303c-0.455-0.203-0.85-0.468-1.188-0.796l-1.771,1.608
	c0.998,1.09,2.334,1.635,4.008,1.635c1.259,0,2.263-0.285,3.012-0.854c0.749-0.566,1.123-1.275,1.123-2.127
	c0-0.639-0.208-1.193-0.622-1.67c-0.415-0.474-1.179-0.938-2.289-1.396l-1.056-0.439c-0.457-0.187-0.742-0.335-0.858-0.441
	c-0.115-0.108-0.174-0.229-0.174-0.356c0-0.17,0.091-0.312,0.272-0.427c0.185-0.113,0.438-0.171,0.76-0.171
	c0.592,0,1.248,0.298,1.974,0.896l1.782-1.483C340.784,449.39,340.227,448.999,339.57,448.724z M343.55,445.074
	c-0.356,0.299-0.536,0.659-0.536,1.081c0,0.438,0.182,0.812,0.541,1.121c0.362,0.307,0.799,0.461,1.312,0.461
	c0.497,0,0.925-0.15,1.282-0.453c0.356-0.301,0.535-0.666,0.535-1.094c0-0.435-0.181-0.804-0.541-1.107
	c-0.359-0.304-0.795-0.457-1.299-0.457C344.338,444.626,343.907,444.775,343.55,445.074z M343.404,458.126h2.879v-9.563h-2.879
	V458.126z M357.907,448.883c-0.907-0.377-1.931-0.564-3.069-0.564c-1.23,0-2.343,0.223-3.339,0.668
	c-0.994,0.443-1.769,1.057-2.325,1.837c-0.556,0.778-0.833,1.632-0.833,2.558c0,1.336,0.572,2.502,1.714,3.498
	c1.144,0.996,2.723,1.494,4.741,1.494c2.242,0,3.979-0.667,5.21-2l-2.271-1.296c-0.719,0.731-1.721,1.099-3.01,1.099
	c-1.041,0-1.883-0.258-2.522-0.771c-0.642-0.516-0.961-1.181-0.961-1.992c0-0.836,0.332-1.523,0.997-2.058
	c0.666-0.535,1.537-0.805,2.613-0.805c0.592,0,1.106,0.077,1.547,0.229c0.439,0.15,0.886,0.424,1.336,0.815l2.396-1.099
	C359.555,449.8,358.813,449.263,357.907,448.883z M377.775,448.883c-0.905-0.377-1.93-0.564-3.067-0.564
	c-1.231,0-2.344,0.223-3.338,0.668c-0.996,0.443-1.771,1.058-2.326,1.837c-0.555,0.778-0.833,1.632-0.833,2.558
	c0,1.336,0.572,2.502,1.714,3.498c1.144,0.996,2.724,1.494,4.74,1.494c2.244,0,3.981-0.667,5.211-2l-2.271-1.296
	c-0.72,0.731-1.724,1.099-3.012,1.099c-1.042,0-1.882-0.258-2.521-0.771c-0.643-0.516-0.961-1.181-0.961-1.992
	c0-0.836,0.332-1.523,0.998-2.058c0.664-0.535,1.535-0.805,2.611-0.805c0.592,0,1.107,0.077,1.547,0.229
	c0.44,0.15,0.887,0.424,1.338,0.815l2.396-1.099C379.425,449.8,378.684,449.263,377.775,448.883z M394.102,453.582
	c0-1.582-0.563-2.854-1.697-3.819c-1.133-0.963-2.602-1.443-4.407-1.443c-1.701,0-3.117,0.48-4.245,1.443
	c-1.128,0.965-1.691,2.178-1.691,3.637c0,1.424,0.564,2.608,1.696,3.555c1.132,0.947,2.597,1.42,4.398,1.42
	c1.159,0,2.161-0.172,3.006-0.514c0.844-0.346,1.567-0.872,2.173-1.587l-2.426-0.949c-0.773,0.627-1.698,0.938-2.773,0.938
	c-0.9,0-1.641-0.2-2.221-0.602c-0.58-0.402-0.938-0.942-1.07-1.622h9.25L394.102,453.582z M384.969,452.149
	c0.325-0.594,0.678-1.007,1.059-1.239c0.604-0.375,1.31-0.563,2.111-0.563c0.739,0,1.389,0.167,1.949,0.501s0.938,0.77,1.125,1.303
	L384.969,452.149L384.969,452.149z M396.421,448.563v9.563h2.88v-3.836c0-0.995,0.041-1.641,0.125-1.94
	c0.162-0.572,0.451-1.021,0.869-1.348c0.417-0.325,0.916-0.487,1.499-0.487c0.448,0,0.825,0.1,1.131,0.294
	c0.308,0.196,0.521,0.481,0.644,0.856c0.123,0.374,0.185,1.131,0.185,2.271v4.188h2.848v-6.319c0-1.101-0.333-1.933-1.001-2.496
	c-0.792-0.661-1.757-0.991-2.896-0.991c-0.555,0-1.097,0.09-1.627,0.269c-0.529,0.18-1.121,0.499-1.773,0.958v-0.979h-2.88h-0.003
	V448.563z M409.733,448.563h-1.479v2.065h1.479v7.497h2.879v-7.497h1.709v-2.065h-1.709v-3.522h-2.879V448.563z M427.366,453.582
	c0-1.582-0.566-2.854-1.697-3.819c-1.133-0.963-2.601-1.443-4.409-1.443c-1.702,0-3.116,0.48-4.245,1.443
	c-1.129,0.965-1.691,2.178-1.691,3.637c0,1.424,0.564,2.608,1.699,3.555c1.13,0.947,2.597,1.42,4.396,1.42
	c1.16,0,2.162-0.172,3.006-0.514c0.844-0.346,1.568-0.872,2.173-1.587l-2.426-0.949c-0.771,0.627-1.698,0.938-2.771,0.938
	c-0.901,0-1.643-0.2-2.223-0.602c-0.58-0.402-0.937-0.942-1.068-1.622h9.25L427.366,453.582z M418.235,452.149
	c0.322-0.594,0.676-1.007,1.057-1.239c0.605-0.375,1.308-0.563,2.112-0.563c0.737,0,1.389,0.167,1.947,0.501
	c0.562,0.334,0.937,0.77,1.125,1.303L418.235,452.149L418.235,452.149z M429.014,448.563v9.563h2.858v-3.867l-0.011-0.466
	c0-1.335,0.151-2.232,0.459-2.688c0.306-0.457,0.681-0.688,1.123-0.688c0.218,0,0.496,0.07,0.833,0.211l0.896-2.063
	c-0.408-0.164-0.798-0.246-1.17-0.246c-0.527,0-1.013,0.123-1.456,0.367c-0.442,0.246-0.797,0.606-1.063,1.081v-1.203h-2.469
	V448.563z"/>
</svg>
